key_frame=1
pkt_pts_time=0.000000
--
pkt_pts_time=0.966667
key_frame=1
pkt_pts_time=1.000000
--
pkt_pts_time=1.966667
key_frame=1
pkt_pts_time=2.000000
--
pkt_pts_time=2.966667
key_frame=1
pkt_pts_time=3.000000
--
pkt_pts_time=3.966667
key_frame=1
pkt_pts_time=4.000000
--
pkt_pts_time=4.966667
key_frame=1
pkt_pts_time=5.000000
--
pkt_pts_time=5.966667
key_frame=1
pkt_pts_time=6.000000
--
pkt_pts_time=6.966667
key_frame=1
pkt_pts_time=7.000000
--
pkt_pts_time=7.966667
key_frame=1
pkt_pts_time=8.000000
--
pkt_pts_time=8.966667
key_frame=1
pkt_pts_time=9.000000
--
pkt_pts_time=9.966667
key_frame=1
pkt_pts_time=10.000000
--
pkt_pts_time=10.966667
key_frame=1
pkt_pts_time=11.000000
--
pkt_pts_time=11.966667
key_frame=1
pkt_pts_time=12.000000
--
pkt_pts_time=12.966667
key_frame=1
pkt_pts_time=13.000000
--
pkt_pts_time=13.966667
key_frame=1
pkt_pts_time=14.000000
--
pkt_pts_time=14.966667
key_frame=1
pkt_pts_time=15.000000
--
pkt_pts_time=15.966667
key_frame=1
pkt_pts_time=16.000000
--
pkt_pts_time=16.966667
key_frame=1
pkt_pts_time=17.000000
--
pkt_pts_time=17.966667
key_frame=1
pkt_pts_time=18.000000
--
pkt_pts_time=18.966667
key_frame=1
pkt_pts_time=19.000000
--
pkt_pts_time=19.966667
key_frame=1
pkt_pts_time=20.000000
--
pkt_pts_time=20.966667
key_frame=1
pkt_pts_time=21.000000
--
pkt_pts_time=21.966667
key_frame=1
pkt_pts_time=22.000000
--
pkt_pts_time=22.966667
key_frame=1
pkt_pts_time=23.000000
--
pkt_pts_time=23.966667
key_frame=1
pkt_pts_time=24.000000
--
pkt_pts_time=24.966667
key_frame=1
pkt_pts_time=25.000000
--
pkt_pts_time=25.966667
key_frame=1
pkt_pts_time=26.000000
--
pkt_pts_time=26.966667
key_frame=1
pkt_pts_time=27.000000
--
pkt_pts_time=27.966667
key_frame=1
pkt_pts_time=28.000000
--
pkt_pts_time=28.966667
key_frame=1
pkt_pts_time=29.000000
--
pkt_pts_time=29.966667
key_frame=1
pkt_pts_time=30.000000
--
pkt_pts_time=30.966667
key_frame=1
pkt_pts_time=31.000000
--
pkt_pts_time=31.966667
key_frame=1
pkt_pts_time=32.000000
--
pkt_pts_time=32.966667
key_frame=1
pkt_pts_time=33.000000
--
pkt_pts_time=33.966667
key_frame=1
pkt_pts_time=34.000000
--
pkt_pts_time=34.966667
key_frame=1
pkt_pts_time=35.000000
--
pkt_pts_time=35.966667
key_frame=1
pkt_pts_time=36.000000
--
pkt_pts_time=36.966667
key_frame=1
pkt_pts_time=37.000000
--
pkt_pts_time=37.966667
key_frame=1
pkt_pts_time=38.000000
--
pkt_pts_time=38.966667
key_frame=1
pkt_pts_time=39.000000
--
pkt_pts_time=39.966667
key_frame=1
pkt_pts_time=40.000000
--
pkt_pts_time=40.966667
key_frame=1
pkt_pts_time=41.000000
--
pkt_pts_time=41.966667
key_frame=1
pkt_pts_time=42.000000
--
pkt_pts_time=42.966667
key_frame=1
pkt_pts_time=43.000000
--
pkt_pts_time=43.966667
key_frame=1
pkt_pts_time=44.000000
--
pkt_pts_time=44.966667
key_frame=1
pkt_pts_time=45.000000
--
pkt_pts_time=45.966667
key_frame=1
pkt_pts_time=46.000000
--
pkt_pts_time=46.966667
key_frame=1
pkt_pts_time=47.000000
--
pkt_pts_time=47.966667
key_frame=1
pkt_pts_time=48.000000
--
pkt_pts_time=48.966667
key_frame=1
pkt_pts_time=49.000000
--
pkt_pts_time=49.966667
key_frame=1
pkt_pts_time=50.000000
--
pkt_pts_time=50.966667
key_frame=1
pkt_pts_time=51.000000
--
pkt_pts_time=51.966667
key_frame=1
pkt_pts_time=52.000000
--
pkt_pts_time=52.966667
key_frame=1
pkt_pts_time=53.000000
--
pkt_pts_time=53.966667
key_frame=1
pkt_pts_time=54.000000
--
pkt_pts_time=54.966667
key_frame=1
pkt_pts_time=55.000000
--
pkt_pts_time=55.966667
key_frame=1
pkt_pts_time=56.000000
--
pkt_pts_time=56.966667
key_frame=1
pkt_pts_time=57.000000
--
pkt_pts_time=57.966667
key_frame=1
pkt_pts_time=58.000000
--
pkt_pts_time=58.966667
key_frame=1
pkt_pts_time=59.000000
--
pkt_pts_time=59.966667
key_frame=1
pkt_pts_time=60.000000
--
pkt_pts_time=60.966667
key_frame=1
pkt_pts_time=61.000000
--
pkt_pts_time=61.966667
key_frame=1
pkt_pts_time=62.000000
--
pkt_pts_time=62.966667
key_frame=1
pkt_pts_time=63.000000
--
pkt_pts_time=63.966667
key_frame=1
pkt_pts_time=64.000000
--
pkt_pts_time=64.966667
key_frame=1
pkt_pts_time=65.000000
--
pkt_pts_time=65.966667
key_frame=1
pkt_pts_time=66.000000
--
pkt_pts_time=66.966667
key_frame=1
pkt_pts_time=67.000000
--
pkt_pts_time=67.966667
key_frame=1
pkt_pts_time=68.000000
--
pkt_pts_time=68.966667
key_frame=1
pkt_pts_time=69.000000
--
pkt_pts_time=69.966667
key_frame=1
pkt_pts_time=70.000000
--
pkt_pts_time=70.966667
key_frame=1
pkt_pts_time=71.000000
--
pkt_pts_time=71.966667
key_frame=1
pkt_pts_time=72.000000
--
pkt_pts_time=72.966667
key_frame=1
pkt_pts_time=73.000000
--
pkt_pts_time=73.966667
key_frame=1
pkt_pts_time=74.000000
--
pkt_pts_time=74.966667
key_frame=1
pkt_pts_time=75.000000
--
pkt_pts_time=75.966667
key_frame=1
pkt_pts_time=76.000000
--
pkt_pts_time=76.966667
key_frame=1
pkt_pts_time=77.000000
--
pkt_pts_time=77.966667
key_frame=1
pkt_pts_time=78.000000
--
pkt_pts_time=78.966667
key_frame=1
pkt_pts_time=79.000000
--
pkt_pts_time=79.966667
key_frame=1
pkt_pts_time=80.000000
--
pkt_pts_time=80.966667
key_frame=1
pkt_pts_time=81.000000
--
pkt_pts_time=81.966667
key_frame=1
pkt_pts_time=82.000000
--
pkt_pts_time=82.966667
key_frame=1
pkt_pts_time=83.000000
--
pkt_pts_time=83.966667
key_frame=1
pkt_pts_time=84.000000
--
pkt_pts_time=84.966667
key_frame=1
pkt_pts_time=85.000000
--
pkt_pts_time=85.966667
key_frame=1
pkt_pts_time=86.000000
--
pkt_pts_time=86.966667
key_frame=1
pkt_pts_time=87.000000
--
pkt_pts_time=87.966667
key_frame=1
pkt_pts_time=88.000000
--
pkt_pts_time=88.966667
key_frame=1
pkt_pts_time=89.000000
--
pkt_pts_time=89.966667
key_frame=1
pkt_pts_time=90.000000
--
pkt_pts_time=90.966667
key_frame=1
pkt_pts_time=91.000000
--
pkt_pts_time=91.966667
key_frame=1
pkt_pts_time=92.000000
--
pkt_pts_time=92.966667
key_frame=1
pkt_pts_time=93.000000
--
pkt_pts_time=93.966667
key_frame=1
pkt_pts_time=94.000000
--
pkt_pts_time=94.966667
key_frame=1
pkt_pts_time=95.000000
--
pkt_pts_time=95.966667
key_frame=1
pkt_pts_time=96.000000
--
pkt_pts_time=96.966667
key_frame=1
pkt_pts_time=97.000000
--
pkt_pts_time=97.966667
key_frame=1
pkt_pts_time=98.000000
--
pkt_pts_time=98.966667
key_frame=1
pkt_pts_time=99.000000
--
pkt_pts_time=99.966667
key_frame=1
pkt_pts_time=100.000000
--
pkt_pts_time=100.966667
key_frame=1
pkt_pts_time=101.000000
--
pkt_pts_time=101.966667
key_frame=1
pkt_pts_time=102.000000
--
pkt_pts_time=102.966667
key_frame=1
pkt_pts_time=103.000000
--
pkt_pts_time=103.966667
key_frame=1
pkt_pts_time=104.000000
--
pkt_pts_time=104.966667
key_frame=1
pkt_pts_time=105.000000
--
pkt_pts_time=105.966667
key_frame=1
pkt_pts_time=106.000000
--
pkt_pts_time=106.966667
key_frame=1
pkt_pts_time=107.000000
--
pkt_pts_time=107.966667
key_frame=1
pkt_pts_time=108.000000
--
pkt_pts_time=108.966667
key_frame=1
pkt_pts_time=109.000000
--
pkt_pts_time=109.966667
key_frame=1
pkt_pts_time=110.000000
--
pkt_pts_time=110.966667
key_frame=1
pkt_pts_time=111.000000
--
pkt_pts_time=111.966667
key_frame=1
pkt_pts_time=112.000000
--
pkt_pts_time=112.966667
key_frame=1
pkt_pts_time=113.000000
--
pkt_pts_time=113.966667
key_frame=1
pkt_pts_time=114.000000
--
pkt_pts_time=114.966667
key_frame=1
pkt_pts_time=115.000000
--
pkt_pts_time=115.966667
key_frame=1
pkt_pts_time=116.000000
--
pkt_pts_time=116.966667
key_frame=1
pkt_pts_time=117.000000
--
pkt_pts_time=117.966667
key_frame=1
pkt_pts_time=118.000000
--
pkt_pts_time=118.966667
key_frame=1
pkt_pts_time=119.000000
--
pkt_pts_time=119.966667
key_frame=1
pkt_pts_time=120.000000
--
pkt_pts_time=120.966667
key_frame=1
pkt_pts_time=121.000000
--
pkt_pts_time=121.966667
key_frame=1
pkt_pts_time=122.000000
--
pkt_pts_time=122.966667
key_frame=1
pkt_pts_time=123.000000
--
pkt_pts_time=123.966667
key_frame=1
pkt_pts_time=124.000000
--
pkt_pts_time=124.966667
key_frame=1
pkt_pts_time=125.000000
--
pkt_pts_time=125.966667
key_frame=1
pkt_pts_time=126.000000
--
pkt_pts_time=126.966667
key_frame=1
pkt_pts_time=127.000000
--
pkt_pts_time=127.966667
key_frame=1
pkt_pts_time=128.000000
--
pkt_pts_time=128.966667
key_frame=1
pkt_pts_time=129.000000
--
pkt_pts_time=129.966667
key_frame=1
pkt_pts_time=130.000000
--
pkt_pts_time=130.966667
key_frame=1
pkt_pts_time=131.000000
--
pkt_pts_time=131.966667
key_frame=1
pkt_pts_time=132.000000
--
pkt_pts_time=132.966667
key_frame=1
pkt_pts_time=133.000000
--
pkt_pts_time=133.966667
key_frame=1
pkt_pts_time=134.000000
--
pkt_pts_time=134.966667
key_frame=1
pkt_pts_time=135.000000
--
pkt_pts_time=135.966667
key_frame=1
pkt_pts_time=136.000000
--
pkt_pts_time=136.966667
key_frame=1
pkt_pts_time=137.000000
--
pkt_pts_time=137.966667
key_frame=1
pkt_pts_time=138.000000
--
pkt_pts_time=138.966667
key_frame=1
pkt_pts_time=139.000000
--
pkt_pts_time=139.966667
key_frame=1
pkt_pts_time=140.000000
--
pkt_pts_time=140.966667
key_frame=1
pkt_pts_time=141.000000
--
pkt_pts_time=141.966667
key_frame=1
pkt_pts_time=142.000000
--
pkt_pts_time=142.966667
key_frame=1
pkt_pts_time=143.000000
--
pkt_pts_time=143.966667
key_frame=1
pkt_pts_time=144.000000
--
pkt_pts_time=144.966667
key_frame=1
pkt_pts_time=145.000000
--
pkt_pts_time=145.966667
key_frame=1
pkt_pts_time=146.000000
--
pkt_pts_time=146.966667
key_frame=1
pkt_pts_time=147.000000
--
pkt_pts_time=147.966667
key_frame=1
pkt_pts_time=148.000000
--
pkt_pts_time=148.966667
key_frame=1
pkt_pts_time=149.000000
--
pkt_pts_time=149.966667
key_frame=1
pkt_pts_time=150.000000
--
pkt_pts_time=150.966667
key_frame=1
pkt_pts_time=151.000000
--
pkt_pts_time=151.966667
key_frame=1
pkt_pts_time=152.000000
--
pkt_pts_time=152.966667
key_frame=1
pkt_pts_time=153.000000
--
pkt_pts_time=153.966667
key_frame=1
pkt_pts_time=154.000000
--
pkt_pts_time=154.966667
key_frame=1
pkt_pts_time=155.000000
--
pkt_pts_time=155.966667
key_frame=1
pkt_pts_time=156.000000
--
pkt_pts_time=156.966667
key_frame=1
pkt_pts_time=157.000000
--
pkt_pts_time=157.966667
key_frame=1
pkt_pts_time=158.000000
--
pkt_pts_time=158.966667
key_frame=1
pkt_pts_time=159.000000
--
pkt_pts_time=159.966667
key_frame=1
pkt_pts_time=160.000000
--
pkt_pts_time=160.966667
key_frame=1
pkt_pts_time=161.000000
--
pkt_pts_time=161.966667
key_frame=1
pkt_pts_time=162.000000
--
pkt_pts_time=162.966667
key_frame=1
pkt_pts_time=163.000000
--
pkt_pts_time=163.966667
key_frame=1
pkt_pts_time=164.000000
--
pkt_pts_time=164.966667
key_frame=1
pkt_pts_time=165.000000
--
pkt_pts_time=165.966667
key_frame=1
pkt_pts_time=166.000000
--
pkt_pts_time=166.966667
key_frame=1
pkt_pts_time=167.000000
--
pkt_pts_time=167.966667
key_frame=1
pkt_pts_time=168.000000
--
pkt_pts_time=168.966667
key_frame=1
pkt_pts_time=169.000000
--
pkt_pts_time=169.966667
key_frame=1
pkt_pts_time=170.000000
--
pkt_pts_time=170.966667
key_frame=1
pkt_pts_time=171.000000
--
pkt_pts_time=171.966667
key_frame=1
pkt_pts_time=172.000000
--
pkt_pts_time=172.966667
key_frame=1
pkt_pts_time=173.000000
--
pkt_pts_time=173.966667
key_frame=1
pkt_pts_time=174.000000
--
pkt_pts_time=174.966667
key_frame=1
pkt_pts_time=175.000000
--
pkt_pts_time=175.966667
key_frame=1
pkt_pts_time=176.000000
--
pkt_pts_time=176.966667
key_frame=1
pkt_pts_time=177.000000
--
pkt_pts_time=177.966667
key_frame=1
pkt_pts_time=178.000000
--
pkt_pts_time=178.966667
key_frame=1
pkt_pts_time=179.000000
--
pkt_pts_time=179.966667
key_frame=1
pkt_pts_time=180.000000
--
pkt_pts_time=180.966667
key_frame=1
pkt_pts_time=181.000000
--
pkt_pts_time=181.966667
key_frame=1
pkt_pts_time=182.000000
--
pkt_pts_time=182.966667
key_frame=1
pkt_pts_time=183.000000
--
pkt_pts_time=183.966667
key_frame=1
pkt_pts_time=184.000000
--
pkt_pts_time=184.966667
key_frame=1
pkt_pts_time=185.000000
--
pkt_pts_time=185.966667
key_frame=1
pkt_pts_time=186.000000
--
pkt_pts_time=186.966667
key_frame=1
pkt_pts_time=187.000000
--
pkt_pts_time=187.966667
key_frame=1
pkt_pts_time=188.000000
--
pkt_pts_time=188.966667
key_frame=1
pkt_pts_time=189.000000
--
pkt_pts_time=189.966667
key_frame=1
pkt_pts_time=190.000000
--
pkt_pts_time=190.966667
key_frame=1
pkt_pts_time=191.000000
--
pkt_pts_time=191.966667
key_frame=1
pkt_pts_time=192.000000
--
pkt_pts_time=192.966667
key_frame=1
pkt_pts_time=193.000000
--
pkt_pts_time=193.966667
key_frame=1
pkt_pts_time=194.000000
--
pkt_pts_time=194.966667
key_frame=1
pkt_pts_time=195.000000
--
pkt_pts_time=195.966667
key_frame=1
pkt_pts_time=196.000000
--
pkt_pts_time=196.966667
key_frame=1
pkt_pts_time=197.000000
--
pkt_pts_time=197.966667
key_frame=1
pkt_pts_time=198.000000
--
pkt_pts_time=198.966667
key_frame=1
pkt_pts_time=199.000000
--
pkt_pts_time=199.966667
key_frame=1
pkt_pts_time=200.000000
--
pkt_pts_time=200.966667
key_frame=1
pkt_pts_time=201.000000
--
pkt_pts_time=201.966667
key_frame=1
pkt_pts_time=202.000000
--
pkt_pts_time=202.966667
key_frame=1
pkt_pts_time=203.000000
--
pkt_pts_time=203.966667
key_frame=1
pkt_pts_time=204.000000
--
pkt_pts_time=204.966667
key_frame=1
pkt_pts_time=205.000000
--
pkt_pts_time=205.966667
key_frame=1
pkt_pts_time=206.000000
--
pkt_pts_time=206.966667
key_frame=1
pkt_pts_time=207.000000
--
pkt_pts_time=207.966667
key_frame=1
pkt_pts_time=208.000000
--
pkt_pts_time=208.966667
key_frame=1
pkt_pts_time=209.000000
--
pkt_pts_time=209.966667
key_frame=1
pkt_pts_time=210.000000
--
pkt_pts_time=210.966667
key_frame=1
pkt_pts_time=211.000000
--
pkt_pts_time=211.966667
key_frame=1
pkt_pts_time=212.000000
--
pkt_pts_time=212.966667
key_frame=1
pkt_pts_time=213.000000
--
pkt_pts_time=213.966667
key_frame=1
pkt_pts_time=214.000000
--
pkt_pts_time=214.966667
key_frame=1
pkt_pts_time=215.000000
--
pkt_pts_time=215.966667
key_frame=1
pkt_pts_time=216.000000
--
pkt_pts_time=216.966667
key_frame=1
pkt_pts_time=217.000000
--
pkt_pts_time=217.966667
key_frame=1
pkt_pts_time=218.000000
--
pkt_pts_time=218.966667
key_frame=1
pkt_pts_time=219.000000
--
pkt_pts_time=219.966667
key_frame=1
pkt_pts_time=220.000000
--
pkt_pts_time=220.966667
key_frame=1
pkt_pts_time=221.000000
--
pkt_pts_time=221.966667
key_frame=1
pkt_pts_time=222.000000
--
pkt_pts_time=222.966667
key_frame=1
pkt_pts_time=223.000000
--
pkt_pts_time=223.966667
key_frame=1
pkt_pts_time=224.000000
--
pkt_pts_time=224.966667
key_frame=1
pkt_pts_time=225.000000
--
pkt_pts_time=225.966667
key_frame=1
pkt_pts_time=226.000000
--
pkt_pts_time=226.966667
key_frame=1
pkt_pts_time=227.000000
--
pkt_pts_time=227.966667
key_frame=1
pkt_pts_time=228.000000
--
pkt_pts_time=228.966667
key_frame=1
pkt_pts_time=229.000000
--
pkt_pts_time=229.966667
key_frame=1
pkt_pts_time=230.000000
--
pkt_pts_time=230.966667
key_frame=1
pkt_pts_time=231.000000
--
pkt_pts_time=231.966667
key_frame=1
pkt_pts_time=232.000000
--
pkt_pts_time=232.966667
key_frame=1
pkt_pts_time=233.000000
--
pkt_pts_time=233.966667
key_frame=1
pkt_pts_time=234.000000
--
pkt_pts_time=234.966667
key_frame=1
pkt_pts_time=235.000000
--
pkt_pts_time=235.966667
key_frame=1
pkt_pts_time=236.000000
--
pkt_pts_time=236.966667
key_frame=1
pkt_pts_time=237.000000
--
pkt_pts_time=237.966667
key_frame=1
pkt_pts_time=238.000000
--
pkt_pts_time=238.966667
key_frame=1
pkt_pts_time=239.000000
--
pkt_pts_time=239.966667
key_frame=1
pkt_pts_time=240.000000
--
pkt_pts_time=240.966667
key_frame=1
pkt_pts_time=241.000000
--
pkt_pts_time=241.966667
key_frame=1
pkt_pts_time=242.000000
--
pkt_pts_time=242.966667
key_frame=1
pkt_pts_time=243.000000
--
pkt_pts_time=243.966667
key_frame=1
pkt_pts_time=244.000000
--
pkt_pts_time=244.966667
key_frame=1
pkt_pts_time=245.000000
--
pkt_pts_time=245.966667
key_frame=1
pkt_pts_time=246.000000
--
pkt_pts_time=246.966667
key_frame=1
pkt_pts_time=247.000000
--
pkt_pts_time=247.966667
key_frame=1
pkt_pts_time=248.000000
--
pkt_pts_time=248.966667
key_frame=1
pkt_pts_time=249.000000
--
pkt_pts_time=249.966667
key_frame=1
pkt_pts_time=250.000000
--
pkt_pts_time=250.966667
key_frame=1
pkt_pts_time=251.000000
--
pkt_pts_time=251.966667
key_frame=1
pkt_pts_time=252.000000
--
pkt_pts_time=252.966667
key_frame=1
pkt_pts_time=253.000000
--
pkt_pts_time=253.966667
key_frame=1
pkt_pts_time=254.000000
--
pkt_pts_time=254.966667
key_frame=1
pkt_pts_time=255.000000
--
pkt_pts_time=255.966667
key_frame=1
pkt_pts_time=256.000000
--
pkt_pts_time=256.966667
key_frame=1
pkt_pts_time=257.000000
--
pkt_pts_time=257.966667
key_frame=1
pkt_pts_time=258.000000
--
pkt_pts_time=258.966667
key_frame=1
pkt_pts_time=259.000000
--
pkt_pts_time=259.966667
key_frame=1
pkt_pts_time=260.000000
--
pkt_pts_time=260.966667
key_frame=1
pkt_pts_time=261.000000
--
pkt_pts_time=261.966667
key_frame=1
pkt_pts_time=262.000000
--
pkt_pts_time=262.966667
key_frame=1
pkt_pts_time=263.000000
--
pkt_pts_time=263.966667
key_frame=1
pkt_pts_time=264.000000
--
pkt_pts_time=264.966667
key_frame=1
pkt_pts_time=265.000000
--
pkt_pts_time=265.966667
key_frame=1
pkt_pts_time=266.000000
--
pkt_pts_time=266.966667
key_frame=1
pkt_pts_time=267.000000
--
pkt_pts_time=267.966667
key_frame=1
pkt_pts_time=268.000000
--
pkt_pts_time=268.966667
key_frame=1
pkt_pts_time=269.000000
--
pkt_pts_time=269.966667
key_frame=1
pkt_pts_time=270.000000
--
pkt_pts_time=270.966667
key_frame=1
pkt_pts_time=271.000000
--
pkt_pts_time=271.966667
key_frame=1
pkt_pts_time=272.000000
--
pkt_pts_time=272.966667
key_frame=1
pkt_pts_time=273.000000
--
pkt_pts_time=273.966667
key_frame=1
pkt_pts_time=274.000000
--
pkt_pts_time=274.966667
key_frame=1
pkt_pts_time=275.000000
--
pkt_pts_time=275.966667
key_frame=1
pkt_pts_time=276.000000
--
pkt_pts_time=276.966667
key_frame=1
pkt_pts_time=277.000000
--
pkt_pts_time=277.966667
key_frame=1
pkt_pts_time=278.000000
--
pkt_pts_time=278.966667
key_frame=1
pkt_pts_time=279.000000
--
pkt_pts_time=279.966667
key_frame=1
pkt_pts_time=280.000000
--
pkt_pts_time=280.966667
key_frame=1
pkt_pts_time=281.000000
--
pkt_pts_time=281.966667
key_frame=1
pkt_pts_time=282.000000
--
pkt_pts_time=282.966667
key_frame=1
pkt_pts_time=283.000000
--
pkt_pts_time=283.966667
key_frame=1
pkt_pts_time=284.000000
--
pkt_pts_time=284.966667
key_frame=1
pkt_pts_time=285.000000
--
pkt_pts_time=285.966667
key_frame=1
pkt_pts_time=286.000000
--
pkt_pts_time=286.966667
key_frame=1
pkt_pts_time=287.000000
--
pkt_pts_time=287.966667
key_frame=1
pkt_pts_time=288.000000
--
pkt_pts_time=288.966667
key_frame=1
pkt_pts_time=289.000000
--
pkt_pts_time=289.966667
key_frame=1
pkt_pts_time=290.000000
--
pkt_pts_time=290.966667
key_frame=1
pkt_pts_time=291.000000
--
pkt_pts_time=291.966667
key_frame=1
pkt_pts_time=292.000000
--
pkt_pts_time=292.966667
key_frame=1
pkt_pts_time=293.000000
--
pkt_pts_time=293.966667
key_frame=1
pkt_pts_time=294.000000
--
pkt_pts_time=294.966667
key_frame=1
pkt_pts_time=295.000000
--
pkt_pts_time=295.966667
key_frame=1
pkt_pts_time=296.000000
--
pkt_pts_time=296.966667
key_frame=1
pkt_pts_time=297.000000
--
pkt_pts_time=297.966667
key_frame=1
pkt_pts_time=298.000000
--
pkt_pts_time=298.966667
key_frame=1
pkt_pts_time=299.000000
--
pkt_pts_time=299.966667
key_frame=1
pkt_pts_time=300.000000
--
pkt_pts_time=300.966667
key_frame=1
pkt_pts_time=301.000000
--
pkt_pts_time=301.966667
key_frame=1
pkt_pts_time=302.000000
--
pkt_pts_time=302.966667
key_frame=1
pkt_pts_time=303.000000
--
pkt_pts_time=303.966667
key_frame=1
pkt_pts_time=304.000000
--
pkt_pts_time=304.966667
key_frame=1
pkt_pts_time=305.000000
--
pkt_pts_time=305.966667
key_frame=1
pkt_pts_time=306.000000
--
pkt_pts_time=306.966667
key_frame=1
pkt_pts_time=307.000000
--
pkt_pts_time=307.966667
key_frame=1
pkt_pts_time=308.000000
--
pkt_pts_time=308.966667
key_frame=1
pkt_pts_time=309.000000
--
pkt_pts_time=309.966667
key_frame=1
pkt_pts_time=310.000000
--
pkt_pts_time=310.966667
key_frame=1
pkt_pts_time=311.000000
--
pkt_pts_time=311.966667
key_frame=1
pkt_pts_time=312.000000
--
pkt_pts_time=312.966667
key_frame=1
pkt_pts_time=313.000000
--
pkt_pts_time=313.966667
key_frame=1
pkt_pts_time=314.000000
--
pkt_pts_time=314.966667
key_frame=1
pkt_pts_time=315.000000
--
pkt_pts_time=315.966667
key_frame=1
pkt_pts_time=316.000000
--
pkt_pts_time=316.966667
key_frame=1
pkt_pts_time=317.000000
--
pkt_pts_time=317.966667
key_frame=1
pkt_pts_time=318.000000
--
pkt_pts_time=318.966667
key_frame=1
pkt_pts_time=319.000000
--
pkt_pts_time=319.966667
key_frame=1
pkt_pts_time=320.000000
--
pkt_pts_time=320.966667
key_frame=1
pkt_pts_time=321.000000
--
pkt_pts_time=321.966667
key_frame=1
pkt_pts_time=322.000000
--
pkt_pts_time=322.966667
key_frame=1
pkt_pts_time=323.000000
--
pkt_pts_time=323.966667
key_frame=1
pkt_pts_time=324.000000
--
pkt_pts_time=324.966667
key_frame=1
pkt_pts_time=325.000000
--
pkt_pts_time=325.966667
key_frame=1
pkt_pts_time=326.000000
--
pkt_pts_time=326.966667
key_frame=1
pkt_pts_time=327.000000
--
pkt_pts_time=327.966667
key_frame=1
pkt_pts_time=328.000000
--
pkt_pts_time=328.966667
key_frame=1
pkt_pts_time=329.000000
--
pkt_pts_time=329.966667
key_frame=1
pkt_pts_time=330.000000
--
pkt_pts_time=330.966667
key_frame=1
pkt_pts_time=331.000000
--
pkt_pts_time=331.966667
key_frame=1
pkt_pts_time=332.000000
--
pkt_pts_time=332.966667
key_frame=1
pkt_pts_time=333.000000
--
pkt_pts_time=333.966667
key_frame=1
pkt_pts_time=334.000000
--
pkt_pts_time=334.966667
key_frame=1
pkt_pts_time=335.000000
--
pkt_pts_time=335.966667
key_frame=1
pkt_pts_time=336.000000
--
pkt_pts_time=336.966667
key_frame=1
pkt_pts_time=337.000000
--
pkt_pts_time=337.966667
key_frame=1
pkt_pts_time=338.000000
--
pkt_pts_time=338.966667
key_frame=1
pkt_pts_time=339.000000
--
pkt_pts_time=339.966667
key_frame=1
pkt_pts_time=340.000000
--
pkt_pts_time=340.966667
key_frame=1
pkt_pts_time=341.000000
--
pkt_pts_time=341.966667
key_frame=1
pkt_pts_time=342.000000
--
pkt_pts_time=342.966667
key_frame=1
pkt_pts_time=343.000000
--
pkt_pts_time=343.966667
key_frame=1
pkt_pts_time=344.000000
--
pkt_pts_time=344.966667
key_frame=1
pkt_pts_time=345.000000
--
pkt_pts_time=345.966667
key_frame=1
pkt_pts_time=346.000000
--
pkt_pts_time=346.966667
key_frame=1
pkt_pts_time=347.000000
--
pkt_pts_time=347.966667
key_frame=1
pkt_pts_time=348.000000
--
pkt_pts_time=348.966667
key_frame=1
pkt_pts_time=349.000000
--
pkt_pts_time=349.966667
key_frame=1
pkt_pts_time=350.000000
--
pkt_pts_time=350.966667
key_frame=1
pkt_pts_time=351.000000
--
pkt_pts_time=351.966667
key_frame=1
pkt_pts_time=352.000000
--
pkt_pts_time=352.966667
key_frame=1
pkt_pts_time=353.000000
--
pkt_pts_time=353.966667
key_frame=1
pkt_pts_time=354.000000
--
pkt_pts_time=354.966667
key_frame=1
pkt_pts_time=355.000000
--
pkt_pts_time=355.966667
key_frame=1
pkt_pts_time=356.000000
--
pkt_pts_time=356.966667
key_frame=1
pkt_pts_time=357.000000
--
pkt_pts_time=357.966667
key_frame=1
pkt_pts_time=358.000000
--
pkt_pts_time=358.966667
key_frame=1
pkt_pts_time=359.000000
--
pkt_pts_time=359.966667
key_frame=1
pkt_pts_time=360.000000
--
pkt_pts_time=360.966667
key_frame=1
pkt_pts_time=361.000000
--
pkt_pts_time=361.966667
key_frame=1
pkt_pts_time=362.000000
--
pkt_pts_time=362.966667
key_frame=1
pkt_pts_time=363.000000
--
pkt_pts_time=363.966667
key_frame=1
pkt_pts_time=364.000000
--
pkt_pts_time=364.966667
key_frame=1
pkt_pts_time=365.000000
--
pkt_pts_time=365.966667
key_frame=1
pkt_pts_time=366.000000
--
pkt_pts_time=366.966667
key_frame=1
pkt_pts_time=367.000000
--
pkt_pts_time=367.966667
key_frame=1
pkt_pts_time=368.000000
--
pkt_pts_time=368.966667
key_frame=1
pkt_pts_time=369.000000
--
pkt_pts_time=369.966667
key_frame=1
pkt_pts_time=370.000000
--
pkt_pts_time=370.966667
key_frame=1
pkt_pts_time=371.000000
--
pkt_pts_time=371.966667
key_frame=1
pkt_pts_time=372.000000
--
pkt_pts_time=372.966667
key_frame=1
pkt_pts_time=373.000000
--
pkt_pts_time=373.966667
key_frame=1
pkt_pts_time=374.000000
--
pkt_pts_time=374.966667
key_frame=1
pkt_pts_time=375.000000
--
pkt_pts_time=375.966667
key_frame=1
pkt_pts_time=376.000000
--
pkt_pts_time=376.966667
key_frame=1
pkt_pts_time=377.000000
--
pkt_pts_time=377.966667
key_frame=1
pkt_pts_time=378.000000
--
pkt_pts_time=378.966667
key_frame=1
pkt_pts_time=379.000000
--
pkt_pts_time=379.966667
key_frame=1
pkt_pts_time=380.000000
--
pkt_pts_time=380.966667
key_frame=1
pkt_pts_time=381.000000
--
pkt_pts_time=381.966667
key_frame=1
pkt_pts_time=382.000000
--
pkt_pts_time=382.966667
key_frame=1
pkt_pts_time=383.000000
--
pkt_pts_time=383.966667
key_frame=1
pkt_pts_time=384.000000
--
pkt_pts_time=384.966667
key_frame=1
pkt_pts_time=385.000000
--
pkt_pts_time=385.966667
key_frame=1
pkt_pts_time=386.000000
--
pkt_pts_time=386.966667
key_frame=1
pkt_pts_time=387.000000
--
pkt_pts_time=387.966667
key_frame=1
pkt_pts_time=388.000000
--
pkt_pts_time=388.966667
key_frame=1
pkt_pts_time=389.000000
--
pkt_pts_time=389.966667
key_frame=1
pkt_pts_time=390.000000
--
pkt_pts_time=390.966667
key_frame=1
pkt_pts_time=391.000000
--
pkt_pts_time=391.966667
key_frame=1
pkt_pts_time=392.000000
--
pkt_pts_time=392.966667
key_frame=1
pkt_pts_time=393.000000
--
pkt_pts_time=393.966667
key_frame=1
pkt_pts_time=394.000000
--
pkt_pts_time=394.966667
key_frame=1
pkt_pts_time=395.000000
--
pkt_pts_time=395.966667
key_frame=1
pkt_pts_time=396.000000
--
pkt_pts_time=396.966667
key_frame=1
pkt_pts_time=397.000000
--
pkt_pts_time=397.966667
key_frame=1
pkt_pts_time=398.000000
--
pkt_pts_time=398.966667
key_frame=1
pkt_pts_time=399.000000
--
pkt_pts_time=399.966667
key_frame=1
pkt_pts_time=400.000000
--
pkt_pts_time=400.966667
key_frame=1
pkt_pts_time=401.000000
--
pkt_pts_time=401.966667
key_frame=1
pkt_pts_time=402.000000
--
pkt_pts_time=402.966667
key_frame=1
pkt_pts_time=403.000000
--
pkt_pts_time=403.966667
key_frame=1
pkt_pts_time=404.000000
--
pkt_pts_time=404.966667
key_frame=1
pkt_pts_time=405.000000
--
pkt_pts_time=405.966667
key_frame=1
pkt_pts_time=406.000000
--
pkt_pts_time=406.966667
key_frame=1
pkt_pts_time=407.000000
--
pkt_pts_time=407.966667
key_frame=1
pkt_pts_time=408.000000
--
pkt_pts_time=408.966667
key_frame=1
pkt_pts_time=409.000000
--
pkt_pts_time=409.966667
key_frame=1
pkt_pts_time=410.000000
--
pkt_pts_time=410.966667
key_frame=1
pkt_pts_time=411.000000
--
pkt_pts_time=411.966667
key_frame=1
pkt_pts_time=412.000000
--
pkt_pts_time=412.966667
key_frame=1
pkt_pts_time=413.000000
--
pkt_pts_time=413.966667
key_frame=1
pkt_pts_time=414.000000
--
pkt_pts_time=414.966667
key_frame=1
pkt_pts_time=415.000000
--
pkt_pts_time=415.966667
key_frame=1
pkt_pts_time=416.000000
--
pkt_pts_time=416.966667
key_frame=1
pkt_pts_time=417.000000
--
pkt_pts_time=417.966667
key_frame=1
pkt_pts_time=418.000000
--
pkt_pts_time=418.966667
key_frame=1
pkt_pts_time=419.000000
--
pkt_pts_time=419.966667
key_frame=1
pkt_pts_time=420.000000
--
pkt_pts_time=420.966667
key_frame=1
pkt_pts_time=421.000000
--
pkt_pts_time=421.966667
key_frame=1
pkt_pts_time=422.000000
--
pkt_pts_time=422.966667
key_frame=1
pkt_pts_time=423.000000
--
pkt_pts_time=423.966667
key_frame=1
pkt_pts_time=424.000000
--
pkt_pts_time=424.966667
key_frame=1
pkt_pts_time=425.000000
--
pkt_pts_time=425.966667
key_frame=1
pkt_pts_time=426.000000
--
pkt_pts_time=426.966667
key_frame=1
pkt_pts_time=427.000000
--
pkt_pts_time=427.966667
key_frame=1
pkt_pts_time=428.000000
--
pkt_pts_time=428.966667
key_frame=1
pkt_pts_time=429.000000
--
pkt_pts_time=429.966667
key_frame=1
pkt_pts_time=430.000000
--
pkt_pts_time=430.966667
key_frame=1
pkt_pts_time=431.000000
--
pkt_pts_time=431.966667
key_frame=1
pkt_pts_time=432.000000
--
pkt_pts_time=432.966667
key_frame=1
pkt_pts_time=433.000000
--
pkt_pts_time=433.966667
key_frame=1
pkt_pts_time=434.000000
--
pkt_pts_time=434.966667
key_frame=1
pkt_pts_time=435.000000
--
pkt_pts_time=435.966667
key_frame=1
pkt_pts_time=436.000000
--
pkt_pts_time=436.966667
key_frame=1
pkt_pts_time=437.000000
--
pkt_pts_time=437.966667
key_frame=1
pkt_pts_time=438.000000
--
pkt_pts_time=438.966667
key_frame=1
pkt_pts_time=439.000000
--
pkt_pts_time=439.966667
key_frame=1
pkt_pts_time=440.000000
--
pkt_pts_time=440.966667
key_frame=1
pkt_pts_time=441.000000
--
pkt_pts_time=441.966667
key_frame=1
pkt_pts_time=442.000000
--
pkt_pts_time=442.966667
key_frame=1
pkt_pts_time=443.000000
--
pkt_pts_time=443.966667
key_frame=1
pkt_pts_time=444.000000
--
pkt_pts_time=444.966667
key_frame=1
pkt_pts_time=445.000000
--
pkt_pts_time=445.966667
key_frame=1
pkt_pts_time=446.000000
--
pkt_pts_time=446.966667
key_frame=1
pkt_pts_time=447.000000
--
pkt_pts_time=447.966667
key_frame=1
pkt_pts_time=448.000000
--
pkt_pts_time=448.966667
key_frame=1
pkt_pts_time=449.000000
--
pkt_pts_time=449.966667
key_frame=1
pkt_pts_time=450.000000
--
pkt_pts_time=450.966667
key_frame=1
pkt_pts_time=451.000000
--
pkt_pts_time=451.966667
key_frame=1
pkt_pts_time=452.000000
--
pkt_pts_time=452.966667
key_frame=1
pkt_pts_time=453.000000
--
pkt_pts_time=453.966667
key_frame=1
pkt_pts_time=454.000000
--
pkt_pts_time=454.966667
key_frame=1
pkt_pts_time=455.000000
--
pkt_pts_time=455.966667
key_frame=1
pkt_pts_time=456.000000
--
pkt_pts_time=456.966667
key_frame=1
pkt_pts_time=457.000000
--
pkt_pts_time=457.966667
key_frame=1
pkt_pts_time=458.000000
--
pkt_pts_time=458.966667
key_frame=1
pkt_pts_time=459.000000
--
pkt_pts_time=459.966667
key_frame=1
pkt_pts_time=460.000000
--
pkt_pts_time=460.966667
key_frame=1
pkt_pts_time=461.000000
--
pkt_pts_time=461.966667
key_frame=1
pkt_pts_time=462.000000
--
pkt_pts_time=462.966667
key_frame=1
pkt_pts_time=463.000000
--
pkt_pts_time=463.966667
key_frame=1
pkt_pts_time=464.000000
--
pkt_pts_time=464.966667
key_frame=1
pkt_pts_time=465.000000
--
pkt_pts_time=465.966667
key_frame=1
pkt_pts_time=466.000000
--
pkt_pts_time=466.966667
key_frame=1
pkt_pts_time=467.000000
--
pkt_pts_time=467.966667
key_frame=1
pkt_pts_time=468.000000
--
pkt_pts_time=468.966667
key_frame=1
pkt_pts_time=469.000000
--
pkt_pts_time=469.966667
key_frame=1
pkt_pts_time=470.000000
--
pkt_pts_time=470.966667
key_frame=1
pkt_pts_time=471.000000
--
pkt_pts_time=471.966667
key_frame=1
pkt_pts_time=472.000000
--
pkt_pts_time=472.966667
key_frame=1
pkt_pts_time=473.000000
--
pkt_pts_time=473.966667
key_frame=1
pkt_pts_time=474.000000
--
pkt_pts_time=474.966667
key_frame=1
pkt_pts_time=475.000000
--
pkt_pts_time=475.966667
key_frame=1
pkt_pts_time=476.000000
--
pkt_pts_time=476.966667
key_frame=1
pkt_pts_time=477.000000
--
pkt_pts_time=477.966667
key_frame=1
pkt_pts_time=478.000000
--
pkt_pts_time=478.966667
key_frame=1
pkt_pts_time=479.000000
--
pkt_pts_time=479.966667
key_frame=1
pkt_pts_time=480.000000
--
pkt_pts_time=480.966667
key_frame=1
pkt_pts_time=481.000000
--
pkt_pts_time=481.966667
key_frame=1
pkt_pts_time=482.000000
--
pkt_pts_time=482.966667
key_frame=1
pkt_pts_time=483.000000
--
pkt_pts_time=483.966667
key_frame=1
pkt_pts_time=484.000000
--
pkt_pts_time=484.966667
key_frame=1
pkt_pts_time=485.000000
--
pkt_pts_time=485.966667
key_frame=1
pkt_pts_time=486.000000
--
pkt_pts_time=486.966667
key_frame=1
pkt_pts_time=487.000000
--
pkt_pts_time=487.966667
key_frame=1
pkt_pts_time=488.000000
--
pkt_pts_time=488.966667
key_frame=1
pkt_pts_time=489.000000
--
pkt_pts_time=489.966667
key_frame=1
pkt_pts_time=490.000000
--
pkt_pts_time=490.966667
key_frame=1
pkt_pts_time=491.000000
--
pkt_pts_time=491.966667
key_frame=1
pkt_pts_time=492.000000
--
pkt_pts_time=492.966667
key_frame=1
pkt_pts_time=493.000000
--
pkt_pts_time=493.966667
key_frame=1
pkt_pts_time=494.000000
--
pkt_pts_time=494.966667
key_frame=1
pkt_pts_time=495.000000
--
pkt_pts_time=495.966667
key_frame=1
pkt_pts_time=496.000000
--
pkt_pts_time=496.966667
key_frame=1
pkt_pts_time=497.000000
--
pkt_pts_time=497.966667
key_frame=1
pkt_pts_time=498.000000
--
pkt_pts_time=498.966667
key_frame=1
pkt_pts_time=499.000000
--
pkt_pts_time=499.966667
key_frame=1
pkt_pts_time=500.000000
--
pkt_pts_time=500.966667
key_frame=1
pkt_pts_time=501.000000
--
pkt_pts_time=501.966667
key_frame=1
pkt_pts_time=502.000000
--
pkt_pts_time=502.966667
key_frame=1
pkt_pts_time=503.000000
--
pkt_pts_time=503.966667
key_frame=1
pkt_pts_time=504.000000
--
pkt_pts_time=504.966667
key_frame=1
pkt_pts_time=505.000000
--
pkt_pts_time=505.966667
key_frame=1
pkt_pts_time=506.000000
--
pkt_pts_time=506.966667
key_frame=1
pkt_pts_time=507.000000
--
pkt_pts_time=507.966667
key_frame=1
pkt_pts_time=508.000000
--
pkt_pts_time=508.966667
key_frame=1
pkt_pts_time=509.000000
--
pkt_pts_time=509.966667
key_frame=1
pkt_pts_time=510.000000
--
pkt_pts_time=510.966667
key_frame=1
pkt_pts_time=511.000000
--
pkt_pts_time=511.966667
key_frame=1
pkt_pts_time=512.000000
--
pkt_pts_time=512.966667
key_frame=1
pkt_pts_time=513.000000
--
pkt_pts_time=513.966667
key_frame=1
pkt_pts_time=514.000000
--
pkt_pts_time=514.966667
key_frame=1
pkt_pts_time=515.000000
--
pkt_pts_time=515.966667
key_frame=1
pkt_pts_time=516.000000
--
pkt_pts_time=516.966667
key_frame=1
pkt_pts_time=517.000000
--
pkt_pts_time=517.966667
key_frame=1
pkt_pts_time=518.000000
--
pkt_pts_time=518.966667
key_frame=1
pkt_pts_time=519.000000
--
pkt_pts_time=519.966667
key_frame=1
pkt_pts_time=520.000000
--
pkt_pts_time=520.966667
key_frame=1
pkt_pts_time=521.000000
--
pkt_pts_time=521.966667
key_frame=1
pkt_pts_time=522.000000
--
pkt_pts_time=522.966667
key_frame=1
pkt_pts_time=523.000000
--
pkt_pts_time=523.966667
key_frame=1
pkt_pts_time=524.000000
--
pkt_pts_time=524.966667
key_frame=1
pkt_pts_time=525.000000
--
pkt_pts_time=525.966667
key_frame=1
pkt_pts_time=526.000000
--
pkt_pts_time=526.966667
key_frame=1
pkt_pts_time=527.000000
--
pkt_pts_time=527.966667
key_frame=1
pkt_pts_time=528.000000
--
pkt_pts_time=528.966667
key_frame=1
pkt_pts_time=529.000000
--
pkt_pts_time=529.966667
key_frame=1
pkt_pts_time=530.000000
--
pkt_pts_time=530.966667
key_frame=1
pkt_pts_time=531.000000
--
pkt_pts_time=531.966667
key_frame=1
pkt_pts_time=532.000000
--
pkt_pts_time=532.966667
key_frame=1
pkt_pts_time=533.000000
--
pkt_pts_time=533.966667
key_frame=1
pkt_pts_time=534.000000
--
pkt_pts_time=534.966667
key_frame=1
pkt_pts_time=535.000000
--
pkt_pts_time=535.966667
key_frame=1
pkt_pts_time=536.000000
--
pkt_pts_time=536.966667
key_frame=1
pkt_pts_time=537.000000
--
pkt_pts_time=537.966667
key_frame=1
pkt_pts_time=538.000000
--
pkt_pts_time=538.966667
key_frame=1
pkt_pts_time=539.000000
--
pkt_pts_time=539.966667
key_frame=1
pkt_pts_time=540.000000
--
pkt_pts_time=540.966667
key_frame=1
pkt_pts_time=541.000000
--
pkt_pts_time=541.966667
key_frame=1
pkt_pts_time=542.000000
--
pkt_pts_time=542.966667
key_frame=1
pkt_pts_time=543.000000
--
pkt_pts_time=543.966667
key_frame=1
pkt_pts_time=544.000000
--
pkt_pts_time=544.966667
key_frame=1
pkt_pts_time=545.000000
--
pkt_pts_time=545.966667
key_frame=1
pkt_pts_time=546.000000
--
pkt_pts_time=546.966667
key_frame=1
pkt_pts_time=547.000000
--
pkt_pts_time=547.966667
key_frame=1
pkt_pts_time=548.000000
--
pkt_pts_time=548.966667
key_frame=1
pkt_pts_time=549.000000
--
pkt_pts_time=549.966667
key_frame=1
pkt_pts_time=550.000000
--
pkt_pts_time=550.966667
key_frame=1
pkt_pts_time=551.000000
--
pkt_pts_time=551.966667
key_frame=1
pkt_pts_time=552.000000
--
pkt_pts_time=552.966667
key_frame=1
pkt_pts_time=553.000000
--
pkt_pts_time=553.966667
key_frame=1
pkt_pts_time=554.000000
--
pkt_pts_time=554.966667
key_frame=1
pkt_pts_time=555.000000
--
pkt_pts_time=555.966667
key_frame=1
pkt_pts_time=556.000000
--
pkt_pts_time=556.966667
key_frame=1
pkt_pts_time=557.000000
--
pkt_pts_time=557.966667
key_frame=1
pkt_pts_time=558.000000
--
pkt_pts_time=558.966667
key_frame=1
pkt_pts_time=559.000000
--
pkt_pts_time=559.966667
key_frame=1
pkt_pts_time=560.000000
--
pkt_pts_time=560.966667
key_frame=1
pkt_pts_time=561.000000
--
pkt_pts_time=561.966667
key_frame=1
pkt_pts_time=562.000000
--
pkt_pts_time=562.966667
key_frame=1
pkt_pts_time=563.000000
--
pkt_pts_time=563.966667
key_frame=1
pkt_pts_time=564.000000
--
pkt_pts_time=564.966667
key_frame=1
pkt_pts_time=565.000000
--
pkt_pts_time=565.966667
key_frame=1
pkt_pts_time=566.000000
--
pkt_pts_time=566.966667
key_frame=1
pkt_pts_time=567.000000
--
pkt_pts_time=567.966667
key_frame=1
pkt_pts_time=568.000000
--
pkt_pts_time=568.966667
key_frame=1
pkt_pts_time=569.000000
--
pkt_pts_time=569.966667
key_frame=1
pkt_pts_time=570.000000
--
pkt_pts_time=570.966667
key_frame=1
pkt_pts_time=571.000000
--
pkt_pts_time=571.966667
key_frame=1
pkt_pts_time=572.000000
--
pkt_pts_time=572.966667
key_frame=1
pkt_pts_time=573.000000
--
pkt_pts_time=573.966667
key_frame=1
pkt_pts_time=574.000000
--
pkt_pts_time=574.966667
key_frame=1
pkt_pts_time=575.000000
--
pkt_pts_time=575.966667
key_frame=1
pkt_pts_time=576.000000
--
pkt_pts_time=576.966667
key_frame=1
pkt_pts_time=577.000000
--
pkt_pts_time=577.966667
key_frame=1
pkt_pts_time=578.000000
--
pkt_pts_time=578.966667
key_frame=1
pkt_pts_time=579.000000
--
pkt_pts_time=579.966667
key_frame=1
pkt_pts_time=580.000000
--
pkt_pts_time=580.966667
key_frame=1
pkt_pts_time=581.000000
--
pkt_pts_time=581.966667
key_frame=1
pkt_pts_time=582.000000
--
pkt_pts_time=582.966667
key_frame=1
pkt_pts_time=583.000000
--
pkt_pts_time=583.966667
key_frame=1
pkt_pts_time=584.000000
--
pkt_pts_time=584.966667
key_frame=1
pkt_pts_time=585.000000
--
pkt_pts_time=585.966667
key_frame=1
pkt_pts_time=586.000000
--
pkt_pts_time=586.966667
key_frame=1
pkt_pts_time=587.000000
--
pkt_pts_time=587.966667
key_frame=1
pkt_pts_time=588.000000
--
pkt_pts_time=588.966667
key_frame=1
pkt_pts_time=589.000000
--
pkt_pts_time=589.966667
key_frame=1
pkt_pts_time=590.000000
--
pkt_pts_time=590.966667
key_frame=1
pkt_pts_time=591.000000
--
pkt_pts_time=591.966667
key_frame=1
pkt_pts_time=592.000000
--
pkt_pts_time=592.966667
key_frame=1
pkt_pts_time=593.000000
--
pkt_pts_time=593.966667
key_frame=1
pkt_pts_time=594.000000
--
pkt_pts_time=594.966667
key_frame=1
pkt_pts_time=595.000000
--
pkt_pts_time=595.966667
key_frame=1
pkt_pts_time=596.000000
--
pkt_pts_time=596.966667
key_frame=1
pkt_pts_time=597.000000
--
pkt_pts_time=597.966667
key_frame=1
pkt_pts_time=598.000000
--
pkt_pts_time=598.966667
key_frame=1
pkt_pts_time=599.000000
--
pkt_pts_time=599.966667
key_frame=1
pkt_pts_time=600.000000
--
pkt_pts_time=600.966667
key_frame=1
pkt_pts_time=601.000000
--
pkt_pts_time=601.966667
key_frame=1
pkt_pts_time=602.000000
--
pkt_pts_time=602.966667
key_frame=1
pkt_pts_time=603.000000
--
pkt_pts_time=603.966667
key_frame=1
pkt_pts_time=604.000000
--
pkt_pts_time=604.966667
key_frame=1
pkt_pts_time=605.000000
--
pkt_pts_time=605.966667
key_frame=1
pkt_pts_time=606.000000
--
pkt_pts_time=606.966667
key_frame=1
pkt_pts_time=607.000000
--
pkt_pts_time=607.966667
key_frame=1
pkt_pts_time=608.000000
--
pkt_pts_time=608.966667
key_frame=1
pkt_pts_time=609.000000
--
pkt_pts_time=609.966667
key_frame=1
pkt_pts_time=610.000000
--
pkt_pts_time=610.966667
key_frame=1
pkt_pts_time=611.000000
--
pkt_pts_time=611.966667
key_frame=1
pkt_pts_time=612.000000
--
pkt_pts_time=612.966667
key_frame=1
pkt_pts_time=613.000000
--
pkt_pts_time=613.966667
key_frame=1
pkt_pts_time=614.000000
--
pkt_pts_time=614.966667
key_frame=1
pkt_pts_time=615.000000
--
pkt_pts_time=615.966667
key_frame=1
pkt_pts_time=616.000000
--
pkt_pts_time=616.966667
key_frame=1
pkt_pts_time=617.000000
--
pkt_pts_time=617.966667
key_frame=1
pkt_pts_time=618.000000
--
pkt_pts_time=618.966667
key_frame=1
pkt_pts_time=619.000000
--
pkt_pts_time=619.966667
key_frame=1
pkt_pts_time=620.000000
--
pkt_pts_time=620.966667
key_frame=1
pkt_pts_time=621.000000
--
pkt_pts_time=621.966667
key_frame=1
pkt_pts_time=622.000000
--
pkt_pts_time=622.966667
key_frame=1
pkt_pts_time=623.000000
--
pkt_pts_time=623.966667
key_frame=1
pkt_pts_time=624.000000
--
pkt_pts_time=624.966667
key_frame=1
pkt_pts_time=625.000000
--
pkt_pts_time=625.966667
key_frame=1
pkt_pts_time=626.000000
--
pkt_pts_time=626.966667
key_frame=1
pkt_pts_time=627.000000
--
pkt_pts_time=627.966667
key_frame=1
pkt_pts_time=628.000000
--
pkt_pts_time=628.966667
key_frame=1
pkt_pts_time=629.000000
--
pkt_pts_time=629.966667
key_frame=1
pkt_pts_time=630.000000
--
pkt_pts_time=630.966667
key_frame=1
pkt_pts_time=631.000000
--
pkt_pts_time=631.966667
key_frame=1
pkt_pts_time=632.000000
--
pkt_pts_time=632.966667
key_frame=1
pkt_pts_time=633.000000
--
pkt_pts_time=633.966667
key_frame=1
pkt_pts_time=634.000000
--
pkt_pts_time=634.966667
key_frame=1
pkt_pts_time=635.000000
--
pkt_pts_time=635.966667
key_frame=1
pkt_pts_time=636.000000
--
pkt_pts_time=636.966667
key_frame=1
pkt_pts_time=637.000000
--
pkt_pts_time=637.966667
key_frame=1
pkt_pts_time=638.000000
--
pkt_pts_time=638.966667
key_frame=1
pkt_pts_time=639.000000
--
pkt_pts_time=639.966667
key_frame=1
pkt_pts_time=640.000000
--
pkt_pts_time=640.966667
key_frame=1
pkt_pts_time=641.000000
--
pkt_pts_time=641.966667
key_frame=1
pkt_pts_time=642.000000
--
pkt_pts_time=642.966667
key_frame=1
pkt_pts_time=643.000000
--
pkt_pts_time=643.966667
key_frame=1
pkt_pts_time=644.000000
--
pkt_pts_time=644.966667
key_frame=1
pkt_pts_time=645.000000
--
pkt_pts_time=645.966667
key_frame=1
pkt_pts_time=646.000000
--
pkt_pts_time=646.966667
key_frame=1
pkt_pts_time=647.000000
--
pkt_pts_time=647.966667
key_frame=1
pkt_pts_time=648.000000
--
pkt_pts_time=648.966667
key_frame=1
pkt_pts_time=649.000000
--
pkt_pts_time=649.966667
key_frame=1
pkt_pts_time=650.000000
--
pkt_pts_time=650.966667
key_frame=1
pkt_pts_time=651.000000
--
pkt_pts_time=651.966667
key_frame=1
pkt_pts_time=652.000000
--
pkt_pts_time=652.966667
key_frame=1
pkt_pts_time=653.000000
--
pkt_pts_time=653.966667
key_frame=1
pkt_pts_time=654.000000
--
pkt_pts_time=654.966667
key_frame=1
pkt_pts_time=655.000000
--
pkt_pts_time=655.966667
key_frame=1
pkt_pts_time=656.000000
--
pkt_pts_time=656.966667
key_frame=1
pkt_pts_time=657.000000
--
pkt_pts_time=657.966667
key_frame=1
pkt_pts_time=658.000000
--
pkt_pts_time=658.966667
key_frame=1
pkt_pts_time=659.000000
--
pkt_pts_time=659.966667
key_frame=1
pkt_pts_time=660.000000
--
pkt_pts_time=660.966667
key_frame=1
pkt_pts_time=661.000000
--
pkt_pts_time=661.966667
key_frame=1
pkt_pts_time=662.000000
--
pkt_pts_time=662.966667
key_frame=1
pkt_pts_time=663.000000
--
pkt_pts_time=663.966667
key_frame=1
pkt_pts_time=664.000000
--
pkt_pts_time=664.966667
key_frame=1
pkt_pts_time=665.000000
--
pkt_pts_time=665.966667
key_frame=1
pkt_pts_time=666.000000
--
pkt_pts_time=666.966667
key_frame=1
pkt_pts_time=667.000000
--
pkt_pts_time=667.966667
key_frame=1
pkt_pts_time=668.000000
--
pkt_pts_time=668.966667
key_frame=1
pkt_pts_time=669.000000
--
pkt_pts_time=669.966667
key_frame=1
pkt_pts_time=670.000000
--
pkt_pts_time=670.966667
key_frame=1
pkt_pts_time=671.000000
--
pkt_pts_time=671.966667
key_frame=1
pkt_pts_time=672.000000
--
pkt_pts_time=672.966667
key_frame=1
pkt_pts_time=673.000000
--
pkt_pts_time=673.966667
key_frame=1
pkt_pts_time=674.000000
--
pkt_pts_time=674.966667
key_frame=1
pkt_pts_time=675.000000
--
pkt_pts_time=675.966667
key_frame=1
pkt_pts_time=676.000000
--
pkt_pts_time=676.966667
key_frame=1
pkt_pts_time=677.000000
--
pkt_pts_time=677.966667
key_frame=1
pkt_pts_time=678.000000
--
pkt_pts_time=678.966667
key_frame=1
pkt_pts_time=679.000000
--
pkt_pts_time=679.966667
key_frame=1
pkt_pts_time=680.000000
--
pkt_pts_time=680.966667
key_frame=1
pkt_pts_time=681.000000
--
pkt_pts_time=681.966667
key_frame=1
pkt_pts_time=682.000000
--
pkt_pts_time=682.966667
key_frame=1
pkt_pts_time=683.000000
--
pkt_pts_time=683.966667
key_frame=1
pkt_pts_time=684.000000
--
pkt_pts_time=684.966667
key_frame=1
pkt_pts_time=685.000000
--
pkt_pts_time=685.966667
key_frame=1
pkt_pts_time=686.000000
--
pkt_pts_time=686.966667
key_frame=1
pkt_pts_time=687.000000
--
pkt_pts_time=687.966667
key_frame=1
pkt_pts_time=688.000000
--
pkt_pts_time=688.966667
key_frame=1
pkt_pts_time=689.000000
--
pkt_pts_time=689.966667
key_frame=1
pkt_pts_time=690.000000
--
pkt_pts_time=690.966667
key_frame=1
pkt_pts_time=691.000000
--
pkt_pts_time=691.966667
key_frame=1
pkt_pts_time=692.000000
--
pkt_pts_time=692.966667
key_frame=1
pkt_pts_time=693.000000
--
pkt_pts_time=693.966667
key_frame=1
pkt_pts_time=694.000000
--
pkt_pts_time=694.966667
key_frame=1
pkt_pts_time=695.000000
--
pkt_pts_time=695.966667
key_frame=1
pkt_pts_time=696.000000
--
pkt_pts_time=696.966667
key_frame=1
pkt_pts_time=697.000000
--
pkt_pts_time=697.966667
key_frame=1
pkt_pts_time=698.000000
--
pkt_pts_time=698.966667
key_frame=1
pkt_pts_time=699.000000
--
pkt_pts_time=699.966667
key_frame=1
pkt_pts_time=700.000000
--
pkt_pts_time=700.966667
key_frame=1
pkt_pts_time=701.000000
--
pkt_pts_time=701.966667
key_frame=1
pkt_pts_time=702.000000
--
pkt_pts_time=702.966667
key_frame=1
pkt_pts_time=703.000000
--
pkt_pts_time=703.966667
key_frame=1
pkt_pts_time=704.000000
--
pkt_pts_time=704.966667
key_frame=1
pkt_pts_time=705.000000
--
pkt_pts_time=705.966667
key_frame=1
pkt_pts_time=706.000000
--
pkt_pts_time=706.966667
key_frame=1
pkt_pts_time=707.000000
--
pkt_pts_time=707.966667
key_frame=1
pkt_pts_time=708.000000
--
pkt_pts_time=708.966667
key_frame=1
pkt_pts_time=709.000000
--
pkt_pts_time=709.966667
key_frame=1
pkt_pts_time=710.000000
--
pkt_pts_time=710.966667
key_frame=1
pkt_pts_time=711.000000
--
pkt_pts_time=711.966667
key_frame=1
pkt_pts_time=712.000000
--
pkt_pts_time=712.966667
key_frame=1
pkt_pts_time=713.000000
--
pkt_pts_time=713.966667
key_frame=1
pkt_pts_time=714.000000
--
pkt_pts_time=714.966667
key_frame=1
pkt_pts_time=715.000000
--
pkt_pts_time=715.966667
key_frame=1
pkt_pts_time=716.000000
--
pkt_pts_time=716.966667
key_frame=1
pkt_pts_time=717.000000
--
pkt_pts_time=717.966667
key_frame=1
pkt_pts_time=718.000000
--
pkt_pts_time=718.966667
key_frame=1
pkt_pts_time=719.000000
--
pkt_pts_time=719.966667
key_frame=1
pkt_pts_time=720.000000
--
pkt_pts_time=720.966667
key_frame=1
pkt_pts_time=721.000000
--
pkt_pts_time=721.966667
key_frame=1
pkt_pts_time=722.000000
--
pkt_pts_time=722.966667
key_frame=1
pkt_pts_time=723.000000
--
pkt_pts_time=723.966667
key_frame=1
pkt_pts_time=724.000000
--
pkt_pts_time=724.966667
key_frame=1
pkt_pts_time=725.000000
--
pkt_pts_time=725.966667
key_frame=1
pkt_pts_time=726.000000
--
pkt_pts_time=726.966667
key_frame=1
pkt_pts_time=727.000000
--
pkt_pts_time=727.966667
key_frame=1
pkt_pts_time=728.000000
--
pkt_pts_time=728.966667
key_frame=1
pkt_pts_time=729.000000
--
pkt_pts_time=729.966667
key_frame=1
pkt_pts_time=730.000000
--
pkt_pts_time=730.966667
key_frame=1
pkt_pts_time=731.000000
--
pkt_pts_time=731.966667
key_frame=1
pkt_pts_time=732.000000
--
pkt_pts_time=732.966667
key_frame=1
pkt_pts_time=733.000000
--
pkt_pts_time=733.966667
key_frame=1
pkt_pts_time=734.000000
--
pkt_pts_time=734.966667
key_frame=1
pkt_pts_time=735.000000
--
pkt_pts_time=735.966667
key_frame=1
pkt_pts_time=736.000000
--
pkt_pts_time=736.966667
key_frame=1
pkt_pts_time=737.000000
--
pkt_pts_time=737.966667
key_frame=1
pkt_pts_time=738.000000
--
pkt_pts_time=738.966667
key_frame=1
pkt_pts_time=739.000000
--
pkt_pts_time=739.966667
key_frame=1
pkt_pts_time=740.000000
--
pkt_pts_time=740.966667
key_frame=1
pkt_pts_time=741.000000
--
pkt_pts_time=741.966667
key_frame=1
pkt_pts_time=742.000000
--
pkt_pts_time=742.966667
key_frame=1
pkt_pts_time=743.000000
--
pkt_pts_time=743.966667
key_frame=1
pkt_pts_time=744.000000
--
pkt_pts_time=744.966667
key_frame=1
pkt_pts_time=745.000000
--
pkt_pts_time=745.966667
key_frame=1
pkt_pts_time=746.000000
--
pkt_pts_time=746.966667
key_frame=1
pkt_pts_time=747.000000
--
pkt_pts_time=747.966667
key_frame=1
pkt_pts_time=748.000000
--
pkt_pts_time=748.966667
key_frame=1
pkt_pts_time=749.000000
--
pkt_pts_time=749.966667
key_frame=1
pkt_pts_time=750.000000
--
pkt_pts_time=750.966667
key_frame=1
pkt_pts_time=751.000000
--
pkt_pts_time=751.966667
key_frame=1
pkt_pts_time=752.000000
--
pkt_pts_time=752.966667
key_frame=1
pkt_pts_time=753.000000
--
pkt_pts_time=753.966667
key_frame=1
pkt_pts_time=754.000000
--
pkt_pts_time=754.966667
key_frame=1
pkt_pts_time=755.000000
--
pkt_pts_time=755.966667
key_frame=1
pkt_pts_time=756.000000
--
pkt_pts_time=756.966667
key_frame=1
pkt_pts_time=757.000000
--
pkt_pts_time=757.966667
key_frame=1
pkt_pts_time=758.000000
--
pkt_pts_time=758.966667
key_frame=1
pkt_pts_time=759.000000
--
pkt_pts_time=759.966667
key_frame=1
pkt_pts_time=760.000000
--
pkt_pts_time=760.966667
key_frame=1
pkt_pts_time=761.000000
--
pkt_pts_time=761.966667
key_frame=1
pkt_pts_time=762.000000
--
pkt_pts_time=762.966667
key_frame=1
pkt_pts_time=763.000000
--
pkt_pts_time=763.966667
key_frame=1
pkt_pts_time=764.000000
--
pkt_pts_time=764.966667
key_frame=1
pkt_pts_time=765.000000
--
pkt_pts_time=765.966667
key_frame=1
pkt_pts_time=766.000000
--
pkt_pts_time=766.966667
key_frame=1
pkt_pts_time=767.000000
--
pkt_pts_time=767.966667
key_frame=1
pkt_pts_time=768.000000
--
pkt_pts_time=768.966667
key_frame=1
pkt_pts_time=769.000000
--
pkt_pts_time=769.966667
key_frame=1
pkt_pts_time=770.000000
--
pkt_pts_time=770.966667
key_frame=1
pkt_pts_time=771.000000
--
pkt_pts_time=771.966667
key_frame=1
pkt_pts_time=772.000000
--
pkt_pts_time=772.966667
key_frame=1
pkt_pts_time=773.000000
--
pkt_pts_time=773.966667
key_frame=1
pkt_pts_time=774.000000
--
pkt_pts_time=774.966667
key_frame=1
pkt_pts_time=775.000000
--
pkt_pts_time=775.966667
key_frame=1
pkt_pts_time=776.000000
--
pkt_pts_time=776.966667
key_frame=1
pkt_pts_time=777.000000
--
pkt_pts_time=777.966667
key_frame=1
pkt_pts_time=778.000000
--
pkt_pts_time=778.966667
key_frame=1
pkt_pts_time=779.000000
--
pkt_pts_time=779.966667
key_frame=1
pkt_pts_time=780.000000
--
pkt_pts_time=780.966667
key_frame=1
pkt_pts_time=781.000000
--
pkt_pts_time=781.966667
key_frame=1
pkt_pts_time=782.000000
--
pkt_pts_time=782.966667
key_frame=1
pkt_pts_time=783.000000
--
pkt_pts_time=783.966667
key_frame=1
pkt_pts_time=784.000000
--
pkt_pts_time=784.966667
key_frame=1
pkt_pts_time=785.000000
--
pkt_pts_time=785.966667
key_frame=1
pkt_pts_time=786.000000
--
pkt_pts_time=786.966667
key_frame=1
pkt_pts_time=787.000000
--
pkt_pts_time=787.966667
key_frame=1
pkt_pts_time=788.000000
--
pkt_pts_time=788.966667
key_frame=1
pkt_pts_time=789.000000
--
pkt_pts_time=789.966667
key_frame=1
pkt_pts_time=790.000000
--
pkt_pts_time=790.966667
key_frame=1
pkt_pts_time=791.000000
--
pkt_pts_time=791.966667
key_frame=1
pkt_pts_time=792.000000
--
pkt_pts_time=792.966667
key_frame=1
pkt_pts_time=793.000000
--
pkt_pts_time=793.966667
key_frame=1
pkt_pts_time=794.000000
--
pkt_pts_time=794.966667
key_frame=1
pkt_pts_time=795.000000
--
pkt_pts_time=795.966667
key_frame=1
pkt_pts_time=796.000000
--
pkt_pts_time=796.966667
key_frame=1
pkt_pts_time=797.000000
--
pkt_pts_time=797.966667
key_frame=1
pkt_pts_time=798.000000
--
pkt_pts_time=798.966667
key_frame=1
pkt_pts_time=799.000000
--
pkt_pts_time=799.966667
key_frame=1
pkt_pts_time=800.000000
--
pkt_pts_time=800.966667
key_frame=1
pkt_pts_time=801.000000
--
pkt_pts_time=801.966667
key_frame=1
pkt_pts_time=802.000000
--
pkt_pts_time=802.966667
key_frame=1
pkt_pts_time=803.000000
--
pkt_pts_time=803.966667
key_frame=1
pkt_pts_time=804.000000
--
pkt_pts_time=804.966667
key_frame=1
pkt_pts_time=805.000000
--
pkt_pts_time=805.966667
key_frame=1
pkt_pts_time=806.000000
--
pkt_pts_time=806.966667
key_frame=1
pkt_pts_time=807.000000
--
pkt_pts_time=807.966667
key_frame=1
pkt_pts_time=808.000000
--
pkt_pts_time=808.966667
key_frame=1
pkt_pts_time=809.000000
--
pkt_pts_time=809.966667
key_frame=1
pkt_pts_time=810.000000
--
pkt_pts_time=810.966667
key_frame=1
pkt_pts_time=811.000000
--
pkt_pts_time=811.966667
key_frame=1
pkt_pts_time=812.000000
--
pkt_pts_time=812.966667
key_frame=1
pkt_pts_time=813.000000
--
pkt_pts_time=813.966667
key_frame=1
pkt_pts_time=814.000000
--
pkt_pts_time=814.966667
key_frame=1
pkt_pts_time=815.000000
--
pkt_pts_time=815.966667
key_frame=1
pkt_pts_time=816.000000
--
pkt_pts_time=816.966667
key_frame=1
pkt_pts_time=817.000000
--
pkt_pts_time=817.966667
key_frame=1
pkt_pts_time=818.000000
--
pkt_pts_time=818.966667
key_frame=1
pkt_pts_time=819.000000
--
pkt_pts_time=819.966667
key_frame=1
pkt_pts_time=820.000000
--
pkt_pts_time=820.966667
key_frame=1
pkt_pts_time=821.000000
--
pkt_pts_time=821.966667
key_frame=1
pkt_pts_time=822.000000
--
pkt_pts_time=822.966667
key_frame=1
pkt_pts_time=823.000000
--
pkt_pts_time=823.966667
key_frame=1
pkt_pts_time=824.000000
--
pkt_pts_time=824.966667
key_frame=1
pkt_pts_time=825.000000
--
pkt_pts_time=825.966667
key_frame=1
pkt_pts_time=826.000000
--
pkt_pts_time=826.966667
key_frame=1
pkt_pts_time=827.000000
--
pkt_pts_time=827.966667
key_frame=1
pkt_pts_time=828.000000
--
pkt_pts_time=828.966667
key_frame=1
pkt_pts_time=829.000000
--
pkt_pts_time=829.966667
key_frame=1
pkt_pts_time=830.000000
--
pkt_pts_time=830.966667
key_frame=1
pkt_pts_time=831.000000
--
pkt_pts_time=831.966667
key_frame=1
pkt_pts_time=832.000000
--
pkt_pts_time=832.966667
key_frame=1
pkt_pts_time=833.000000
--
pkt_pts_time=833.966667
key_frame=1
pkt_pts_time=834.000000
--
pkt_pts_time=834.966667
key_frame=1
pkt_pts_time=835.000000
--
pkt_pts_time=835.966667
key_frame=1
pkt_pts_time=836.000000
--
pkt_pts_time=836.966667
key_frame=1
pkt_pts_time=837.000000
--
pkt_pts_time=837.966667
key_frame=1
pkt_pts_time=838.000000
--
pkt_pts_time=838.966667
key_frame=1
pkt_pts_time=839.000000
--
pkt_pts_time=839.966667
key_frame=1
pkt_pts_time=840.000000
--
pkt_pts_time=840.966667
key_frame=1
pkt_pts_time=841.000000
--
pkt_pts_time=841.966667
key_frame=1
pkt_pts_time=842.000000
--
pkt_pts_time=842.966667
key_frame=1
pkt_pts_time=843.000000
--
pkt_pts_time=843.966667
key_frame=1
pkt_pts_time=844.000000
--
pkt_pts_time=844.966667
key_frame=1
pkt_pts_time=845.000000
--
pkt_pts_time=845.966667
key_frame=1
pkt_pts_time=846.000000
--
pkt_pts_time=846.966667
key_frame=1
pkt_pts_time=847.000000
--
pkt_pts_time=847.966667
key_frame=1
pkt_pts_time=848.000000
--
pkt_pts_time=848.966667
key_frame=1
pkt_pts_time=849.000000
--
pkt_pts_time=849.966667
key_frame=1
pkt_pts_time=850.000000
--
pkt_pts_time=850.966667
key_frame=1
pkt_pts_time=851.000000
--
pkt_pts_time=851.966667
key_frame=1
pkt_pts_time=852.000000
--
pkt_pts_time=852.966667
key_frame=1
pkt_pts_time=853.000000
--
pkt_pts_time=853.966667
key_frame=1
pkt_pts_time=854.000000
--
pkt_pts_time=854.966667
key_frame=1
pkt_pts_time=855.000000
--
pkt_pts_time=855.966667
key_frame=1
pkt_pts_time=856.000000
--
pkt_pts_time=856.966667
key_frame=1
pkt_pts_time=857.000000
--
pkt_pts_time=857.966667
key_frame=1
pkt_pts_time=858.000000
--
pkt_pts_time=858.966667
key_frame=1
pkt_pts_time=859.000000
--
pkt_pts_time=859.966667
key_frame=1
pkt_pts_time=860.000000
--
pkt_pts_time=860.966667
key_frame=1
pkt_pts_time=861.000000
--
pkt_pts_time=861.966667
key_frame=1
pkt_pts_time=862.000000
--
pkt_pts_time=862.966667
key_frame=1
pkt_pts_time=863.000000
--
pkt_pts_time=863.966667
key_frame=1
pkt_pts_time=864.000000
--
pkt_pts_time=864.966667
key_frame=1
pkt_pts_time=865.000000
--
pkt_pts_time=865.966667
key_frame=1
pkt_pts_time=866.000000
--
pkt_pts_time=866.966667
key_frame=1
pkt_pts_time=867.000000
--
pkt_pts_time=867.966667
key_frame=1
pkt_pts_time=868.000000
--
pkt_pts_time=868.966667
key_frame=1
pkt_pts_time=869.000000
--
pkt_pts_time=869.966667
key_frame=1
pkt_pts_time=870.000000
--
pkt_pts_time=870.966667
key_frame=1
pkt_pts_time=871.000000
--
pkt_pts_time=871.966667
key_frame=1
pkt_pts_time=872.000000
--
pkt_pts_time=872.966667
key_frame=1
pkt_pts_time=873.000000
--
pkt_pts_time=873.966667
key_frame=1
pkt_pts_time=874.000000
--
pkt_pts_time=874.966667
key_frame=1
pkt_pts_time=875.000000
--
pkt_pts_time=875.966667
key_frame=1
pkt_pts_time=876.000000
--
pkt_pts_time=876.966667
key_frame=1
pkt_pts_time=877.000000
--
pkt_pts_time=877.966667
key_frame=1
pkt_pts_time=878.000000
--
pkt_pts_time=878.966667
key_frame=1
pkt_pts_time=879.000000
--
pkt_pts_time=879.966667
key_frame=1
pkt_pts_time=880.000000
--
pkt_pts_time=880.966667
key_frame=1
pkt_pts_time=881.000000
--
pkt_pts_time=881.966667
key_frame=1
pkt_pts_time=882.000000
--
pkt_pts_time=882.966667
key_frame=1
pkt_pts_time=883.000000
--
pkt_pts_time=883.966667
key_frame=1
pkt_pts_time=884.000000
--
pkt_pts_time=884.966667
key_frame=1
pkt_pts_time=885.000000
--
pkt_pts_time=885.966667
key_frame=1
pkt_pts_time=886.000000
--
pkt_pts_time=886.966667
key_frame=1
pkt_pts_time=887.000000
--
pkt_pts_time=887.966667
key_frame=1
pkt_pts_time=888.000000
--
pkt_pts_time=888.966667
key_frame=1
pkt_pts_time=889.000000
--
pkt_pts_time=889.966667
key_frame=1
pkt_pts_time=890.000000
--
pkt_pts_time=890.966667
key_frame=1
pkt_pts_time=891.000000
--
pkt_pts_time=891.966667
key_frame=1
pkt_pts_time=892.000000
--
pkt_pts_time=892.966667
key_frame=1
pkt_pts_time=893.000000
--
pkt_pts_time=893.966667
key_frame=1
pkt_pts_time=894.000000
--
pkt_pts_time=894.966667
key_frame=1
pkt_pts_time=895.000000
--
pkt_pts_time=895.966667
key_frame=1
pkt_pts_time=896.000000
--
pkt_pts_time=896.966667
key_frame=1
pkt_pts_time=897.000000
--
pkt_pts_time=897.966667
key_frame=1
pkt_pts_time=898.000000
--
pkt_pts_time=898.966667
key_frame=1
pkt_pts_time=899.000000
--
pkt_pts_time=899.966667
key_frame=1
pkt_pts_time=900.000000
--
pkt_pts_time=900.966667
key_frame=1
pkt_pts_time=901.000000
--
pkt_pts_time=901.966667
key_frame=1
pkt_pts_time=902.000000
--
pkt_pts_time=902.966667
key_frame=1
pkt_pts_time=903.000000
--
pkt_pts_time=903.966667
key_frame=1
pkt_pts_time=904.000000
--
pkt_pts_time=904.966667
key_frame=1
pkt_pts_time=905.000000
--
pkt_pts_time=905.966667
key_frame=1
pkt_pts_time=906.000000
--
pkt_pts_time=906.966667
key_frame=1
pkt_pts_time=907.000000
--
pkt_pts_time=907.966667
key_frame=1
pkt_pts_time=908.000000
--
pkt_pts_time=908.966667
key_frame=1
pkt_pts_time=909.000000
--
pkt_pts_time=909.966667
key_frame=1
pkt_pts_time=910.000000
--
pkt_pts_time=910.966667
key_frame=1
pkt_pts_time=911.000000
--
pkt_pts_time=911.966667
key_frame=1
pkt_pts_time=912.000000
--
pkt_pts_time=912.966667
key_frame=1
pkt_pts_time=913.000000
--
pkt_pts_time=913.966667
key_frame=1
pkt_pts_time=914.000000
--
pkt_pts_time=914.966667
key_frame=1
pkt_pts_time=915.000000
--
pkt_pts_time=915.966667
key_frame=1
pkt_pts_time=916.000000
--
pkt_pts_time=916.966667
key_frame=1
pkt_pts_time=917.000000
--
pkt_pts_time=917.966667
key_frame=1
pkt_pts_time=918.000000
--
pkt_pts_time=918.966667
key_frame=1
pkt_pts_time=919.000000
--
pkt_pts_time=919.966667
key_frame=1
pkt_pts_time=920.000000
--
pkt_pts_time=920.966667
key_frame=1
pkt_pts_time=921.000000
--
pkt_pts_time=921.966667
key_frame=1
pkt_pts_time=922.000000
--
pkt_pts_time=922.966667
key_frame=1
pkt_pts_time=923.000000
--
pkt_pts_time=923.966667
key_frame=1
pkt_pts_time=924.000000
--
pkt_pts_time=924.966667
key_frame=1
pkt_pts_time=925.000000
--
pkt_pts_time=925.966667
key_frame=1
pkt_pts_time=926.000000
--
pkt_pts_time=926.966667
key_frame=1
pkt_pts_time=927.000000
--
pkt_pts_time=927.966667
key_frame=1
pkt_pts_time=928.000000
--
pkt_pts_time=928.966667
key_frame=1
pkt_pts_time=929.000000
--
pkt_pts_time=929.966667
key_frame=1
pkt_pts_time=930.000000
--
pkt_pts_time=930.966667
key_frame=1
pkt_pts_time=931.000000
--
pkt_pts_time=931.966667
key_frame=1
pkt_pts_time=932.000000
--
pkt_pts_time=932.966667
key_frame=1
pkt_pts_time=933.000000
--
pkt_pts_time=933.966667
key_frame=1
pkt_pts_time=934.000000
--
pkt_pts_time=934.966667
key_frame=1
pkt_pts_time=935.000000
--
pkt_pts_time=935.966667
key_frame=1
pkt_pts_time=936.000000
--
pkt_pts_time=936.966667
key_frame=1
pkt_pts_time=937.000000
--
pkt_pts_time=937.966667
key_frame=1
pkt_pts_time=938.000000
--
pkt_pts_time=938.966667
key_frame=1
pkt_pts_time=939.000000
--
pkt_pts_time=939.966667
key_frame=1
pkt_pts_time=940.000000
--
pkt_pts_time=940.966667
key_frame=1
pkt_pts_time=941.000000
--
pkt_pts_time=941.966667
key_frame=1
pkt_pts_time=942.000000
--
pkt_pts_time=942.966667
key_frame=1
pkt_pts_time=943.000000
--
pkt_pts_time=943.966667
key_frame=1
pkt_pts_time=944.000000
--
pkt_pts_time=944.966667
key_frame=1
pkt_pts_time=945.000000
--
pkt_pts_time=945.966667
key_frame=1
pkt_pts_time=946.000000
--
pkt_pts_time=946.966667
key_frame=1
pkt_pts_time=947.000000
--
pkt_pts_time=947.966667
key_frame=1
pkt_pts_time=948.000000
--
pkt_pts_time=948.966667
key_frame=1
pkt_pts_time=949.000000
--
pkt_pts_time=949.966667
key_frame=1
pkt_pts_time=950.000000
--
pkt_pts_time=950.966667
key_frame=1
pkt_pts_time=951.000000
--
pkt_pts_time=951.966667
key_frame=1
pkt_pts_time=952.000000
--
pkt_pts_time=952.966667
key_frame=1
pkt_pts_time=953.000000
--
pkt_pts_time=953.966667
key_frame=1
pkt_pts_time=954.000000
--
pkt_pts_time=954.966667
key_frame=1
pkt_pts_time=955.000000
--
pkt_pts_time=955.966667
key_frame=1
pkt_pts_time=956.000000
--
pkt_pts_time=956.966667
key_frame=1
pkt_pts_time=957.000000
--
pkt_pts_time=957.966667
key_frame=1
pkt_pts_time=958.000000
--
pkt_pts_time=958.966667
key_frame=1
pkt_pts_time=959.000000
--
pkt_pts_time=959.966667
key_frame=1
pkt_pts_time=960.000000
--
pkt_pts_time=960.966667
key_frame=1
pkt_pts_time=961.000000
--
pkt_pts_time=961.966667
key_frame=1
pkt_pts_time=962.000000
--
pkt_pts_time=962.966667
key_frame=1
pkt_pts_time=963.000000
--
pkt_pts_time=963.966667
key_frame=1
pkt_pts_time=964.000000
--
pkt_pts_time=964.966667
key_frame=1
pkt_pts_time=965.000000
--
pkt_pts_time=965.966667
key_frame=1
pkt_pts_time=966.000000
--
pkt_pts_time=966.966667
key_frame=1
pkt_pts_time=967.000000
--
pkt_pts_time=967.966667
key_frame=1
pkt_pts_time=968.000000
--
pkt_pts_time=968.966667
key_frame=1
pkt_pts_time=969.000000
--
pkt_pts_time=969.966667
key_frame=1
pkt_pts_time=970.000000
--
pkt_pts_time=970.966667
key_frame=1
pkt_pts_time=971.000000
--
pkt_pts_time=971.966667
key_frame=1
pkt_pts_time=972.000000
--
pkt_pts_time=972.966667
key_frame=1
pkt_pts_time=973.000000
--
pkt_pts_time=973.966667
key_frame=1
pkt_pts_time=974.000000
--
pkt_pts_time=974.966667
key_frame=1
pkt_pts_time=975.000000
--
pkt_pts_time=975.966667
key_frame=1
pkt_pts_time=976.000000
--
pkt_pts_time=976.966667
key_frame=1
pkt_pts_time=977.000000
--
pkt_pts_time=977.966667
key_frame=1
pkt_pts_time=978.000000
--
pkt_pts_time=978.966667
key_frame=1
pkt_pts_time=979.000000
--
pkt_pts_time=979.966667
key_frame=1
pkt_pts_time=980.000000
--
pkt_pts_time=980.966667
key_frame=1
pkt_pts_time=981.000000
--
pkt_pts_time=981.966667
key_frame=1
pkt_pts_time=982.000000
--
pkt_pts_time=982.966667
key_frame=1
pkt_pts_time=983.000000
--
pkt_pts_time=983.966667
key_frame=1
pkt_pts_time=984.000000
--
pkt_pts_time=984.966667
key_frame=1
pkt_pts_time=985.000000
--
pkt_pts_time=985.966667
key_frame=1
pkt_pts_time=986.000000
--
pkt_pts_time=986.966667
key_frame=1
pkt_pts_time=987.000000
--
pkt_pts_time=987.966667
key_frame=1
pkt_pts_time=988.000000
--
pkt_pts_time=988.966667
key_frame=1
pkt_pts_time=989.000000
--
pkt_pts_time=989.966667
key_frame=1
pkt_pts_time=990.000000
--
pkt_pts_time=990.966667
key_frame=1
pkt_pts_time=991.000000
--
pkt_pts_time=991.966667
key_frame=1
pkt_pts_time=992.000000
--
pkt_pts_time=992.966667
key_frame=1
pkt_pts_time=993.000000
--
pkt_pts_time=993.966667
key_frame=1
pkt_pts_time=994.000000
--
pkt_pts_time=994.966667
key_frame=1
pkt_pts_time=995.000000
--
pkt_pts_time=995.966667
key_frame=1
pkt_pts_time=996.000000
--
pkt_pts_time=996.966667
key_frame=1
pkt_pts_time=997.000000
--
pkt_pts_time=997.966667
key_frame=1
pkt_pts_time=998.000000
--
pkt_pts_time=998.966667
key_frame=1
pkt_pts_time=999.000000
--
pkt_pts_time=999.966667
key_frame=1
pkt_pts_time=1000.000000
--
pkt_pts_time=1000.966667
key_frame=1
pkt_pts_time=1001.000000
--
pkt_pts_time=1001.966667
key_frame=1
pkt_pts_time=1002.000000
--
pkt_pts_time=1002.966667
key_frame=1
pkt_pts_time=1003.000000
--
pkt_pts_time=1003.966667
key_frame=1
pkt_pts_time=1004.000000
--
pkt_pts_time=1004.966667
key_frame=1
pkt_pts_time=1005.000000
--
pkt_pts_time=1005.966667
key_frame=1
pkt_pts_time=1006.000000
--
pkt_pts_time=1006.966667
key_frame=1
pkt_pts_time=1007.000000
--
pkt_pts_time=1007.966667
key_frame=1
pkt_pts_time=1008.000000
--
pkt_pts_time=1008.966667
key_frame=1
pkt_pts_time=1009.000000
--
pkt_pts_time=1009.966667
key_frame=1
pkt_pts_time=1010.000000
--
pkt_pts_time=1010.966667
key_frame=1
pkt_pts_time=1011.000000
--
pkt_pts_time=1011.966667
key_frame=1
pkt_pts_time=1012.000000
--
pkt_pts_time=1012.966667
key_frame=1
pkt_pts_time=1013.000000
--
pkt_pts_time=1013.966667
key_frame=1
pkt_pts_time=1014.000000
--
pkt_pts_time=1014.966667
key_frame=1
pkt_pts_time=1015.000000
--
pkt_pts_time=1015.966667
key_frame=1
pkt_pts_time=1016.000000
--
pkt_pts_time=1016.966667
key_frame=1
pkt_pts_time=1017.000000
--
pkt_pts_time=1017.966667
key_frame=1
pkt_pts_time=1018.000000
--
pkt_pts_time=1018.966667
key_frame=1
pkt_pts_time=1019.000000
--
pkt_pts_time=1019.966667
key_frame=1
pkt_pts_time=1020.000000
--
pkt_pts_time=1020.966667
key_frame=1
pkt_pts_time=1021.000000
--
pkt_pts_time=1021.966667
key_frame=1
pkt_pts_time=1022.000000
--
pkt_pts_time=1022.966667
key_frame=1
pkt_pts_time=1023.000000
--
pkt_pts_time=1023.966667
key_frame=1
pkt_pts_time=1024.000000
--
pkt_pts_time=1024.966667
key_frame=1
pkt_pts_time=1025.000000
--
pkt_pts_time=1025.966667
key_frame=1
pkt_pts_time=1026.000000
--
pkt_pts_time=1026.966667
key_frame=1
pkt_pts_time=1027.000000
--
pkt_pts_time=1027.966667
key_frame=1
pkt_pts_time=1028.000000
--
pkt_pts_time=1028.966667
key_frame=1
pkt_pts_time=1029.000000
--
pkt_pts_time=1029.966667
key_frame=1
pkt_pts_time=1030.000000
--
pkt_pts_time=1030.966667
key_frame=1
pkt_pts_time=1031.000000
--
pkt_pts_time=1031.966667
key_frame=1
pkt_pts_time=1032.000000
--
pkt_pts_time=1032.966667
key_frame=1
pkt_pts_time=1033.000000
--
pkt_pts_time=1033.966667
key_frame=1
pkt_pts_time=1034.000000
--
pkt_pts_time=1034.966667
key_frame=1
pkt_pts_time=1035.000000
--
pkt_pts_time=1035.966667
key_frame=1
pkt_pts_time=1036.000000
--
pkt_pts_time=1036.966667
key_frame=1
pkt_pts_time=1037.000000
--
pkt_pts_time=1037.966667
key_frame=1
pkt_pts_time=1038.000000
--
pkt_pts_time=1038.966667
key_frame=1
pkt_pts_time=1039.000000
--
pkt_pts_time=1039.966667
key_frame=1
pkt_pts_time=1040.000000
--
pkt_pts_time=1040.966667
key_frame=1
pkt_pts_time=1041.000000
--
pkt_pts_time=1041.966667
key_frame=1
pkt_pts_time=1042.000000
--
pkt_pts_time=1042.966667
key_frame=1
pkt_pts_time=1043.000000
--
pkt_pts_time=1043.966667
key_frame=1
pkt_pts_time=1044.000000
--
pkt_pts_time=1044.966667
key_frame=1
pkt_pts_time=1045.000000
--
pkt_pts_time=1045.966667
key_frame=1
pkt_pts_time=1046.000000
--
pkt_pts_time=1046.966667
key_frame=1
pkt_pts_time=1047.000000
--
pkt_pts_time=1047.966667
key_frame=1
pkt_pts_time=1048.000000
--
pkt_pts_time=1048.966667
key_frame=1
pkt_pts_time=1049.000000
--
pkt_pts_time=1049.966667
key_frame=1
pkt_pts_time=1050.000000
--
pkt_pts_time=1050.966667
key_frame=1
pkt_pts_time=1051.000000
--
pkt_pts_time=1051.966667
key_frame=1
pkt_pts_time=1052.000000
--
pkt_pts_time=1052.966667
key_frame=1
pkt_pts_time=1053.000000
--
pkt_pts_time=1053.966667
key_frame=1
pkt_pts_time=1054.000000
--
pkt_pts_time=1054.966667
key_frame=1
pkt_pts_time=1055.000000
--
pkt_pts_time=1055.966667
key_frame=1
pkt_pts_time=1056.000000
--
pkt_pts_time=1056.966667
key_frame=1
pkt_pts_time=1057.000000
--
pkt_pts_time=1057.966667
key_frame=1
pkt_pts_time=1058.000000
--
pkt_pts_time=1058.966667
key_frame=1
pkt_pts_time=1059.000000
--
pkt_pts_time=1059.966667
key_frame=1
pkt_pts_time=1060.000000
--
pkt_pts_time=1060.966667
key_frame=1
pkt_pts_time=1061.000000
--
pkt_pts_time=1061.966667
key_frame=1
pkt_pts_time=1062.000000
--
pkt_pts_time=1062.966667
key_frame=1
pkt_pts_time=1063.000000
--
pkt_pts_time=1063.966667
key_frame=1
pkt_pts_time=1064.000000
--
pkt_pts_time=1064.966667
key_frame=1
pkt_pts_time=1065.000000
--
pkt_pts_time=1065.966667
key_frame=1
pkt_pts_time=1066.000000
--
pkt_pts_time=1066.966667
key_frame=1
pkt_pts_time=1067.000000
--
pkt_pts_time=1067.966667
key_frame=1
pkt_pts_time=1068.000000
--
pkt_pts_time=1068.966667
key_frame=1
pkt_pts_time=1069.000000
--
pkt_pts_time=1069.966667
key_frame=1
pkt_pts_time=1070.000000
--
pkt_pts_time=1070.966667
key_frame=1
pkt_pts_time=1071.000000
--
pkt_pts_time=1071.966667
key_frame=1
pkt_pts_time=1072.000000
--
pkt_pts_time=1072.966667
key_frame=1
pkt_pts_time=1073.000000
--
pkt_pts_time=1073.966667
key_frame=1
pkt_pts_time=1074.000000
--
pkt_pts_time=1074.966667
key_frame=1
pkt_pts_time=1075.000000
--
pkt_pts_time=1075.966667
key_frame=1
pkt_pts_time=1076.000000
--
pkt_pts_time=1076.966667
key_frame=1
pkt_pts_time=1077.000000
--
pkt_pts_time=1077.966667
key_frame=1
pkt_pts_time=1078.000000
--
pkt_pts_time=1078.966667
key_frame=1
pkt_pts_time=1079.000000
--
pkt_pts_time=1079.966667
key_frame=1
pkt_pts_time=1080.000000
--
pkt_pts_time=1080.966667
key_frame=1
pkt_pts_time=1081.000000
--
pkt_pts_time=1081.966667
key_frame=1
pkt_pts_time=1082.000000
--
pkt_pts_time=1082.966667
key_frame=1
pkt_pts_time=1083.000000
--
pkt_pts_time=1083.966667
key_frame=1
pkt_pts_time=1084.000000
--
pkt_pts_time=1084.966667
key_frame=1
pkt_pts_time=1085.000000
--
pkt_pts_time=1085.966667
key_frame=1
pkt_pts_time=1086.000000
--
pkt_pts_time=1086.966667
key_frame=1
pkt_pts_time=1087.000000
--
pkt_pts_time=1087.966667
key_frame=1
pkt_pts_time=1088.000000
--
pkt_pts_time=1088.966667
key_frame=1
pkt_pts_time=1089.000000
--
pkt_pts_time=1089.966667
key_frame=1
pkt_pts_time=1090.000000
--
pkt_pts_time=1090.966667
key_frame=1
pkt_pts_time=1091.000000
--
pkt_pts_time=1091.966667
key_frame=1
pkt_pts_time=1092.000000
--
pkt_pts_time=1092.966667
key_frame=1
pkt_pts_time=1093.000000
--
pkt_pts_time=1093.966667
key_frame=1
pkt_pts_time=1094.000000
--
pkt_pts_time=1094.966667
key_frame=1
pkt_pts_time=1095.000000
--
pkt_pts_time=1095.966667
key_frame=1
pkt_pts_time=1096.000000
--
pkt_pts_time=1096.966667
key_frame=1
pkt_pts_time=1097.000000
--
pkt_pts_time=1097.966667
key_frame=1
pkt_pts_time=1098.000000
--
pkt_pts_time=1098.966667
key_frame=1
pkt_pts_time=1099.000000
--
pkt_pts_time=1099.966667
key_frame=1
pkt_pts_time=1100.000000
--
pkt_pts_time=1100.966667
key_frame=1
pkt_pts_time=1101.000000
--
pkt_pts_time=1101.966667
key_frame=1
pkt_pts_time=1102.000000
--
pkt_pts_time=1102.966667
key_frame=1
pkt_pts_time=1103.000000
--
pkt_pts_time=1103.966667
key_frame=1
pkt_pts_time=1104.000000
--
pkt_pts_time=1104.966667
key_frame=1
pkt_pts_time=1105.000000
--
pkt_pts_time=1105.966667
key_frame=1
pkt_pts_time=1106.000000
--
pkt_pts_time=1106.966667
key_frame=1
pkt_pts_time=1107.000000
--
pkt_pts_time=1107.966667
key_frame=1
pkt_pts_time=1108.000000
--
pkt_pts_time=1108.966667
key_frame=1
pkt_pts_time=1109.000000
--
pkt_pts_time=1109.966667
key_frame=1
pkt_pts_time=1110.000000
--
pkt_pts_time=1110.966667
key_frame=1
pkt_pts_time=1111.000000
--
pkt_pts_time=1111.966667
key_frame=1
pkt_pts_time=1112.000000
--
pkt_pts_time=1112.966667
key_frame=1
pkt_pts_time=1113.000000
--
pkt_pts_time=1113.966667
key_frame=1
pkt_pts_time=1114.000000
--
pkt_pts_time=1114.966667
key_frame=1
pkt_pts_time=1115.000000
--
pkt_pts_time=1115.966667
key_frame=1
pkt_pts_time=1116.000000
--
pkt_pts_time=1116.966667
key_frame=1
pkt_pts_time=1117.000000
--
pkt_pts_time=1117.966667
key_frame=1
pkt_pts_time=1118.000000
--
pkt_pts_time=1118.966667
key_frame=1
pkt_pts_time=1119.000000
--
pkt_pts_time=1119.966667
key_frame=1
pkt_pts_time=1120.000000
--
pkt_pts_time=1120.966667
key_frame=1
pkt_pts_time=1121.000000
--
pkt_pts_time=1121.966667
key_frame=1
pkt_pts_time=1122.000000
--
pkt_pts_time=1122.966667
key_frame=1
pkt_pts_time=1123.000000
--
pkt_pts_time=1123.966667
key_frame=1
pkt_pts_time=1124.000000
--
pkt_pts_time=1124.966667
key_frame=1
pkt_pts_time=1125.000000
--
pkt_pts_time=1125.966667
key_frame=1
pkt_pts_time=1126.000000
--
pkt_pts_time=1126.966667
key_frame=1
pkt_pts_time=1127.000000
--
pkt_pts_time=1127.966667
key_frame=1
pkt_pts_time=1128.000000
--
pkt_pts_time=1128.966667
key_frame=1
pkt_pts_time=1129.000000
--
pkt_pts_time=1129.966667
key_frame=1
pkt_pts_time=1130.000000
--
pkt_pts_time=1130.966667
key_frame=1
pkt_pts_time=1131.000000
--
pkt_pts_time=1131.966667
key_frame=1
pkt_pts_time=1132.000000
--
pkt_pts_time=1132.966667
key_frame=1
pkt_pts_time=1133.000000
--
pkt_pts_time=1133.966667
key_frame=1
pkt_pts_time=1134.000000
--
pkt_pts_time=1134.966667
key_frame=1
pkt_pts_time=1135.000000
--
pkt_pts_time=1135.966667
key_frame=1
pkt_pts_time=1136.000000
--
pkt_pts_time=1136.966667
key_frame=1
pkt_pts_time=1137.000000
--
pkt_pts_time=1137.966667
key_frame=1
pkt_pts_time=1138.000000
--
pkt_pts_time=1138.966667
key_frame=1
pkt_pts_time=1139.000000
--
pkt_pts_time=1139.966667
key_frame=1
pkt_pts_time=1140.000000
--
pkt_pts_time=1140.966667
key_frame=1
pkt_pts_time=1141.000000
--
pkt_pts_time=1141.966667
key_frame=1
pkt_pts_time=1142.000000
--
pkt_pts_time=1142.966667
key_frame=1
pkt_pts_time=1143.000000
--
pkt_pts_time=1143.966667
key_frame=1
pkt_pts_time=1144.000000
--
pkt_pts_time=1144.966667
key_frame=1
pkt_pts_time=1145.000000
--
pkt_pts_time=1145.966667
key_frame=1
pkt_pts_time=1146.000000
--
pkt_pts_time=1146.966667
key_frame=1
pkt_pts_time=1147.000000
--
pkt_pts_time=1147.966667
key_frame=1
pkt_pts_time=1148.000000
--
pkt_pts_time=1148.966667
key_frame=1
pkt_pts_time=1149.000000
--
pkt_pts_time=1149.966667
key_frame=1
pkt_pts_time=1150.000000
--
pkt_pts_time=1150.966667
key_frame=1
pkt_pts_time=1151.000000
--
pkt_pts_time=1151.966667
key_frame=1
pkt_pts_time=1152.000000
--
pkt_pts_time=1152.966667
key_frame=1
pkt_pts_time=1153.000000
--
pkt_pts_time=1153.966667
key_frame=1
pkt_pts_time=1154.000000
--
pkt_pts_time=1154.966667
key_frame=1
pkt_pts_time=1155.000000
--
pkt_pts_time=1155.966667
key_frame=1
pkt_pts_time=1156.000000
--
pkt_pts_time=1156.966667
key_frame=1
pkt_pts_time=1157.000000
--
pkt_pts_time=1157.966667
key_frame=1
pkt_pts_time=1158.000000
--
pkt_pts_time=1158.966667
key_frame=1
pkt_pts_time=1159.000000
--
pkt_pts_time=1159.966667
key_frame=1
pkt_pts_time=1160.000000
--
pkt_pts_time=1160.966667
key_frame=1
pkt_pts_time=1161.000000
--
pkt_pts_time=1161.966667
key_frame=1
pkt_pts_time=1162.000000
--
pkt_pts_time=1162.966667
key_frame=1
pkt_pts_time=1163.000000
--
pkt_pts_time=1163.966667
key_frame=1
pkt_pts_time=1164.000000
--
pkt_pts_time=1164.966667
key_frame=1
pkt_pts_time=1165.000000
--
pkt_pts_time=1165.966667
key_frame=1
pkt_pts_time=1166.000000
--
pkt_pts_time=1166.966667
key_frame=1
pkt_pts_time=1167.000000
--
pkt_pts_time=1167.966667
key_frame=1
pkt_pts_time=1168.000000
--
pkt_pts_time=1168.966667
key_frame=1
pkt_pts_time=1169.000000
--
pkt_pts_time=1169.966667
key_frame=1
pkt_pts_time=1170.000000
--
pkt_pts_time=1170.966667
key_frame=1
pkt_pts_time=1171.000000
--
pkt_pts_time=1171.966667
key_frame=1
pkt_pts_time=1172.000000
--
pkt_pts_time=1172.966667
key_frame=1
pkt_pts_time=1173.000000
--
pkt_pts_time=1173.966667
key_frame=1
pkt_pts_time=1174.000000
--
pkt_pts_time=1174.966667
key_frame=1
pkt_pts_time=1175.000000
--
pkt_pts_time=1175.966667
key_frame=1
pkt_pts_time=1176.000000
--
pkt_pts_time=1176.966667
key_frame=1
pkt_pts_time=1177.000000
--
pkt_pts_time=1177.966667
key_frame=1
pkt_pts_time=1178.000000
--
pkt_pts_time=1178.966667
key_frame=1
pkt_pts_time=1179.000000
--
pkt_pts_time=1179.966667
key_frame=1
pkt_pts_time=1180.000000
--
pkt_pts_time=1180.966667
key_frame=1
pkt_pts_time=1181.000000
--
pkt_pts_time=1181.966667
key_frame=1
pkt_pts_time=1182.000000
--
pkt_pts_time=1182.966667
key_frame=1
pkt_pts_time=1183.000000
--
pkt_pts_time=1183.966667
key_frame=1
pkt_pts_time=1184.000000
--
pkt_pts_time=1184.966667
key_frame=1
pkt_pts_time=1185.000000
--
pkt_pts_time=1185.966667
key_frame=1
pkt_pts_time=1186.000000
--
pkt_pts_time=1186.966667
key_frame=1
pkt_pts_time=1187.000000
--
pkt_pts_time=1187.966667
key_frame=1
pkt_pts_time=1188.000000
--
pkt_pts_time=1188.966667
key_frame=1
pkt_pts_time=1189.000000
--
pkt_pts_time=1189.966667
key_frame=1
pkt_pts_time=1190.000000
--
pkt_pts_time=1190.966667
key_frame=1
pkt_pts_time=1191.000000
--
pkt_pts_time=1191.966667
key_frame=1
pkt_pts_time=1192.000000
--
pkt_pts_time=1192.966667
key_frame=1
pkt_pts_time=1193.000000
--
pkt_pts_time=1193.966667
key_frame=1
pkt_pts_time=1194.000000
--
pkt_pts_time=1194.966667
key_frame=1
pkt_pts_time=1195.000000
--
pkt_pts_time=1195.966667
key_frame=1
pkt_pts_time=1196.000000
--
pkt_pts_time=1196.966667
key_frame=1
pkt_pts_time=1197.000000
--
pkt_pts_time=1197.966667
key_frame=1
pkt_pts_time=1198.000000
--
pkt_pts_time=1198.966667
key_frame=1
pkt_pts_time=1199.000000
--
pkt_pts_time=1199.966667
key_frame=1
pkt_pts_time=1200.000000
--
pkt_pts_time=1200.966667
key_frame=1
pkt_pts_time=1201.000000
--
pkt_pts_time=1201.966667
key_frame=1
pkt_pts_time=1202.000000
